<svg width="20" height="20" viewBox="0 0 20 20" fill="none" xmlns="http://www.w3.org/2000/svg">
<g clip-path="url(#clip0_6493_207343)">
<path d="M4.16602 12.5C3.38945 12.5 3.00116 12.5 2.69488 12.3731C2.2865 12.2039 1.96204 11.8795 1.79288 11.4711C1.66602 11.1648 1.66602 10.7765 1.66602 9.99996V4.33329C1.66602 3.39987 1.66602 2.93316 1.84767 2.57664C2.00746 2.26304 2.26243 2.00807 2.57603 1.84828C2.93255 1.66663 3.39926 1.66663 4.33268 1.66663H9.99935C10.7759 1.66663 11.1642 1.66663 11.4705 1.79349C11.8789 1.96265 12.2033 2.28711 12.3725 2.69549C12.4993 3.00177 12.4993 3.39006 12.4993 4.16663M10.166 18.3333H15.666C16.5994 18.3333 17.0661 18.3333 17.4227 18.1516C17.7363 17.9918 17.9912 17.7369 18.151 17.4233C18.3327 17.0668 18.3327 16.6 18.3327 15.6666V10.1666C18.3327 9.23321 18.3327 8.7665 18.151 8.40998C17.9912 8.09637 17.7363 7.8414 17.4227 7.68162C17.0661 7.49996 16.5994 7.49996 15.666 7.49996H10.166C9.23259 7.49996 8.76588 7.49996 8.40937 7.68162C8.09576 7.8414 7.84079 8.09637 7.68101 8.40998C7.49935 8.7665 7.49935 9.23321 7.49935 10.1666V15.6666C7.49935 16.6 7.49935 17.0668 7.68101 17.4233C7.84079 17.7369 8.09576 17.9918 8.40937 18.1516C8.76588 18.3333 9.2326 18.3333 10.166 18.3333Z" stroke="#344054" stroke-width="1.66667" stroke-linecap="round" stroke-linejoin="round"/>
</g>
<defs>
<clipPath id="clip0_6493_207343">
<rect width="20" height="20" fill="white"/>
</clipPath>
</defs>
</svg>
