<svg width="46" height="46" viewBox="0 0 46 46" fill="none" xmlns="http://www.w3.org/2000/svg">
<path d="M43.3371 12.2574C41.3509 8.49728 38.3611 5.36141 34.6999 3.1982C31.0388 1.03499 26.8496 -0.0708558 22.5977 0.00351791L22.8332 13.4652C24.5961 13.4344 26.333 13.8929 27.851 14.7898C29.369 15.6867 30.6086 16.9869 31.4321 18.5459L43.3371 12.2574Z" fill="#1E5DBC"/>
<path d="M23 0C18.9892 -4.78281e-08 15.0482 1.04881 11.5679 3.04236C8.08766 5.03591 5.18921 7.90489 3.16021 11.3646C1.13121 14.8243 0.0421796 18.7544 0.00120053 22.765C-0.0397785 26.7756 0.968715 30.7271 2.9266 34.2276L14.6768 27.6554C13.8649 26.204 13.4468 24.5655 13.4638 22.9026C13.4808 21.2396 13.9323 19.61 14.7736 18.1755C15.6149 16.741 16.8167 15.5514 18.2598 14.7248C19.7028 13.8981 21.337 13.4633 23 13.4633V0Z" fill="#4EB2F9"/>
<path d="M2.93832 34.2485C4.82199 37.608 7.51919 40.4407 10.7824 42.4867C14.0457 44.5326 17.7705 45.7263 21.615 45.9583C25.4596 46.1902 29.3009 45.4529 32.7864 43.8141C36.272 42.1752 39.2901 39.6873 41.564 36.5786L30.7017 28.6334C29.7583 29.9231 28.5062 30.9553 27.0601 31.6352C25.6141 32.3151 24.0204 32.621 22.4254 32.5248C20.8304 32.4285 19.2851 31.9333 17.9313 31.0845C16.5774 30.2357 15.4584 29.0605 14.677 27.6667L2.93832 34.2485Z" fill="#1EBCB4"/>
</svg>
