<svg width="56" height="56" viewBox="0 0 56 56" fill="none" xmlns="http://www.w3.org/2000/svg">
<rect width="56" height="56" rx="28" fill="#F4EBFF"/>
<path d="M26.2498 29.7501L38.4998 17.5001M26.3986 30.1328L29.4647 38.0172C29.7349 38.7117 29.8699 39.059 30.0645 39.1604C30.2332 39.2483 30.4342 39.2484 30.603 39.1607C30.7977 39.0596 30.9332 38.7124 31.2041 38.0182L38.8928 18.3158C39.1374 17.6891 39.2597 17.3757 39.1928 17.1755C39.1347 17.0016 38.9982 16.8652 38.8243 16.8071C38.6241 16.7402 38.3107 16.8625 37.684 17.107L17.9817 24.7958C17.2874 25.0667 16.9403 25.2022 16.8391 25.3969C16.7514 25.5657 16.7515 25.7666 16.8394 25.9353C16.9408 26.1299 17.2881 26.265 17.9827 26.5351L25.867 29.6012C26.008 29.6561 26.0785 29.6835 26.1379 29.7258C26.1905 29.7633 26.2365 29.8094 26.274 29.862C26.3164 29.9213 26.3438 29.9918 26.3986 30.1328Z" stroke="#7F56D9" stroke-width="2" stroke-linecap="round" stroke-linejoin="round"/>
</svg>
