<svg width="40" height="40" viewBox="0 0 40 40" fill="none" xmlns="http://www.w3.org/2000/svg">
<rect x="0.5" y="0.5" width="39" height="39" rx="7.5" fill="white"/>
<path d="M16.2896 28.1256C23.8368 28.1256 27.9648 21.8728 27.9648 16.4504C27.9648 16.2728 27.9648 16.096 27.9528 15.92C28.7559 15.3391 29.4491 14.6199 30 13.796C29.2512 14.128 28.4567 14.3456 27.6432 14.4416C28.4998 13.9288 29.141 13.1222 29.4472 12.172C28.6417 12.65 27.7605 12.9868 26.8416 13.168C26.2229 12.5101 25.4047 12.0745 24.5135 11.9285C23.6223 11.7826 22.7078 11.9344 21.9116 12.3605C21.1154 12.7866 20.4819 13.4633 20.109 14.2857C19.7361 15.1082 19.6446 16.0307 19.8488 16.9104C18.2174 16.8285 16.6215 16.4045 15.1645 15.666C13.7076 14.9274 12.4223 13.8907 11.392 12.6232C10.8673 13.5265 10.7066 14.5958 10.9426 15.6135C11.1786 16.6312 11.7936 17.5206 12.6624 18.1008C12.0094 18.0816 11.3705 17.9054 10.8 17.5872V17.6392C10.8003 18.5865 11.1282 19.5046 11.7282 20.2378C12.3282 20.9709 13.1634 21.474 14.092 21.6616C13.4879 21.8263 12.8541 21.8504 12.2392 21.732C12.5015 22.5472 13.012 23.2602 13.6994 23.7711C14.3867 24.282 15.2165 24.5654 16.0728 24.5816C15.222 25.2503 14.2478 25.7447 13.2057 26.0366C12.1637 26.3284 11.0743 26.4119 10 26.2824C11.8765 27.4865 14.0599 28.1253 16.2896 28.1224" fill="#98A2B3"/>
<rect x="0.5" y="0.5" width="39" height="39" rx="7.5" stroke="#D0D5DD"/>
</svg>
