<svg width="56" height="56" viewBox="0 0 56 56" fill="none" xmlns="http://www.w3.org/2000/svg">
<rect opacity="0.3" width="56" height="56" rx="28" fill="#1EBCB4"/>
<path d="M36.2457 20H19.7543C18.787 20 18 20.787 18 21.7543V32.7383C18 33.7056 18.787 34.4926 19.7543 34.4926H24.9005L23.4798 36.1867C23.3823 36.303 23.361 36.4653 23.4252 36.6029C23.4893 36.7404 23.6274 36.8283 23.7792 36.8283H32.2208C32.3726 36.8283 32.5107 36.7404 32.5748 36.6029C32.639 36.4653 32.6177 36.303 32.5202 36.1867L31.0995 34.4926H36.2457C37.213 34.4926 38 33.7056 38 32.7383V21.7543C38 20.787 37.213 20 36.2457 20ZM31.3834 36.0471H24.6166L25.9202 34.4927H30.0799L31.3834 36.0471ZM37.2188 32.7383C37.2188 33.2748 36.7822 33.7114 36.2457 33.7114H19.7543C19.2178 33.7114 18.7812 33.2748 18.7812 32.7383V21.7543C18.7812 21.2178 19.2178 20.7813 19.7543 20.7813H36.2457C36.7822 20.7813 37.2188 21.2178 37.2188 21.7543V32.7383Z" fill="#1EBCB4" stroke="#1EBCB4" stroke-width="0.2"/>
<rect x="20" y="22" width="16" height="8" fill="white"/>
<path d="M35.8857 21.724H20.1143C19.8985 21.724 19.7236 21.8989 19.7236 22.1146V30.4192C19.7236 30.6349 19.8985 30.8098 20.1143 30.8098H35.8857C36.1014 30.8098 36.2763 30.6349 36.2763 30.4192V22.1146C36.2763 21.8989 36.1014 21.724 35.8857 21.724ZM35.495 30.0285H20.5049V22.5052H35.495V30.0285Z" fill="#1EBCB4" stroke="#1EBCB4" stroke-width="0.2"/>
<path d="M24.032 28.6757C24.0967 28.7178 24.1708 28.7388 24.2449 28.7388C24.3189 28.7388 24.3929 28.7178 24.4576 28.6758C24.7525 28.4843 26.2411 27.4988 26.5923 26.902C26.7373 26.6556 26.9271 26.2649 26.901 25.7191C26.8568 24.796 26.1716 24.0729 25.3411 24.0729C24.8796 24.0729 24.4924 24.2819 24.2452 24.4613C24.0004 24.2815 23.6149 24.0729 23.1444 24.0729C22.3139 24.0729 21.6287 24.796 21.5845 25.7192C21.5583 26.266 21.7483 26.6563 21.8934 26.9023C22.2427 27.4944 23.7361 28.4835 24.032 28.6757ZM22.3649 25.7565C22.3887 25.2589 22.7384 24.8541 23.1444 24.8541C23.5979 24.8541 23.949 25.2333 23.9508 25.2353C24.0236 25.3172 24.1268 25.3655 24.2364 25.3671C24.3467 25.3688 24.4506 25.3248 24.5257 25.2451C24.5295 25.2412 24.9069 24.8541 25.3411 24.8541C25.7472 24.8541 26.0968 25.2589 26.1207 25.7565C26.1333 26.0201 26.073 26.2441 25.919 26.5057C25.7483 26.7957 24.9006 27.437 24.2449 27.8796C23.5867 27.4356 22.7361 26.7931 22.5664 26.5054C22.4125 26.2446 22.3523 26.0206 22.3649 25.7565Z" fill="#1EBCB4" stroke="#1EBCB4" stroke-width="0.2"/>
<path d="M28.0079 26.3993H29.1291L29.5352 27.0077C29.6162 27.1289 29.7577 27.195 29.9028 27.1791C30.0477 27.1632 30.1716 27.0679 30.2243 26.932L30.4856 26.2578L30.9603 27.8771C31.0072 28.0373 31.1508 28.15 31.3176 28.1575C31.3235 28.1578 31.3293 28.1579 31.3352 28.1579C31.4951 28.1579 31.6396 28.0602 31.6986 27.9103L32.3118 26.3521C32.3845 26.4291 32.4868 26.4746 32.5959 26.4746H34.0277C34.2434 26.4746 34.4183 26.2997 34.4183 26.084C34.4183 25.8682 34.2434 25.6934 34.0277 25.6934H32.8378L32.6114 25.2385C32.5427 25.1003 32.3992 25.0157 32.2448 25.0222C32.0905 25.0289 31.9548 25.1258 31.8982 25.2694L31.3891 26.563L30.9118 24.9344C30.8647 24.7739 30.7207 24.6611 30.5535 24.6541C30.3868 24.6468 30.2332 24.7471 30.1727 24.9032L29.7675 25.9487L29.6628 25.7918C29.5903 25.6832 29.4684 25.618 29.3379 25.618H28.0078C27.7921 25.618 27.6172 25.7929 27.6172 26.0086C27.6172 26.2244 27.7921 26.3993 28.0079 26.3993Z" fill="#1EBCB4" stroke="#1EBCB4" stroke-width="0.2"/>
<path d="M28.5932 31.6456H27.4063C27.1905 31.6456 27.0156 31.8205 27.0156 32.0363C27.0156 32.252 27.1905 32.4269 27.4063 32.4269H28.5932C28.809 32.4269 28.9839 32.252 28.9839 32.0363C28.9839 31.8205 28.809 31.6456 28.5932 31.6456Z" fill="#1EBCB4" stroke="#1EBCB4" stroke-width="0.2"/>
</svg>
