<svg width="56" height="56" viewBox="0 0 56 56" fill="none" xmlns="http://www.w3.org/2000/svg">
<ellipse opacity="0.3" cx="27.9865" cy="28" rx="27.9865" ry="28" fill="#A27FFF"/>
<g clip-path="url(#clip0_52519_1502)">
<path d="M19.9904 32.6667L17.325 26.6667L16.6587 26.0001L21.9894 20.6667L24.6548 22.6667L27.3202 22.0001L31.9846 22.6667L34.65 20.6667L39.3144 25.3334L37.3154 28.6667L34.65 34.0001L33.3173 36.6667L29.9856 38.0001L26.6539 38.6667H23.9885L21.9894 36.6667L20.6568 35.3334L19.9904 32.6667Z" fill="white"/>
<path d="M43.8288 22.6922L37.6256 16.4859C37.4262 16.2863 37.1028 16.2863 36.9032 16.4859L33.8016 19.589C33.7058 19.6848 33.652 19.8148 33.652 19.9504C33.652 20.0859 33.7058 20.2159 33.8016 20.3117L34.111 20.6213L33.4 21.3325C32.9384 21.7942 32.2222 21.9202 31.6178 21.6457C31.0512 21.3884 30.4213 21.2525 29.7962 21.2525C29.0538 21.2525 28.3284 21.4389 27.6838 21.792C27.415 21.7258 27.1391 21.6918 26.8605 21.6918C26.4576 21.6918 26.0619 21.7614 25.6843 21.8987C25.0814 22.1178 24.4352 21.982 23.9974 21.5442L22.7207 20.2669L22.8728 20.1147C22.9686 20.0189 23.0223 19.8889 23.0223 19.7534C23.0223 19.6178 22.9686 19.4878 22.8728 19.392L19.7712 16.2889C19.5716 16.0893 19.2483 16.0893 19.0487 16.2889L12.1437 23.1972C11.9443 23.3968 11.9443 23.7204 12.1437 23.92L15.2453 27.0231C15.3411 27.1189 15.471 27.1728 15.6065 27.1728C15.7421 27.1728 15.8719 27.1189 15.9678 27.0231L16.1528 26.838L17.0532 27.7389C17.2804 27.9662 17.431 28.25 17.4887 28.5596C17.7877 30.1647 18.556 31.624 19.7107 32.7799L19.8803 32.9496C19.5546 33.2928 19.3754 33.7399 19.3754 34.2149C19.3754 34.7062 19.5667 35.1681 19.9139 35.5156C20.2724 35.8742 20.7431 36.0535 21.214 36.0535C21.2447 36.0535 21.2752 36.0526 21.3059 36.0511C21.281 36.5523 21.4594 37.0617 21.8411 37.4437C22.1884 37.7911 22.6501 37.9824 23.1412 37.9824C23.1548 37.9824 23.1685 37.9818 23.1821 37.9814C23.1716 38.4657 23.3502 38.9534 23.7188 39.3222C24.0661 39.6697 24.5278 39.861 25.0189 39.861C25.51 39.861 25.9717 39.6696 26.319 39.3222C26.3482 39.293 26.3758 39.2627 26.4027 39.2321C26.5835 39.2952 26.7748 39.3287 26.9682 39.3287C27.4275 39.3287 27.859 39.1497 28.1826 38.8249C28.3549 38.6526 28.4855 38.45 28.5706 38.2293L28.6229 38.2816C28.9577 38.6166 29.3974 38.7841 29.8371 38.7841C30.2769 38.7841 30.7166 38.6166 31.0514 38.2816C31.2293 38.1036 31.3629 37.8934 31.4477 37.6643C31.7473 37.8823 32.1021 37.9915 32.457 37.9915C32.8968 37.9915 33.3367 37.8241 33.6718 37.4893C33.9961 37.1648 34.1747 36.7332 34.1747 36.274C34.1747 36.1352 34.1581 35.9991 34.1264 35.8676C34.4536 35.8011 34.7542 35.6404 34.9954 35.3988C35.3196 35.0743 35.4982 34.6429 35.4982 34.184C35.4982 33.8224 35.3869 33.4782 35.1813 33.1896L35.5911 32.7796C36.7592 31.6104 37.5309 30.1327 37.8228 28.5064C37.8718 28.2341 38.0066 27.9812 38.2128 27.7747L39.737 26.2499L40.0049 26.5179C40.1047 26.6178 40.2354 26.6676 40.3662 26.6676C40.4968 26.6676 40.6277 26.6178 40.7274 26.5179L43.829 23.4148C43.9248 23.319 43.9786 23.189 43.9786 23.0535C43.9786 22.9179 43.9246 22.788 43.8288 22.6922ZM15.6065 25.939L13.2273 23.5586L19.4099 17.3731L21.7891 19.7535L15.6065 25.939ZM21.7916 34.793C21.4732 35.1115 20.955 35.1116 20.6363 34.793C20.482 34.6385 20.3971 34.4333 20.3971 34.215C20.3971 33.9968 20.4821 33.7915 20.6364 33.6372C20.7956 33.4778 21.0047 33.3982 21.2139 33.3982C21.4231 33.3982 21.6323 33.4778 21.7915 33.6372C22.11 33.9558 22.11 34.4743 21.7916 34.793ZM23.7186 36.7209C23.5645 36.8754 23.3594 36.9603 23.141 36.9603C22.9229 36.9603 22.7177 36.8753 22.5635 36.7209C22.245 36.4023 22.245 35.8838 22.5635 35.5651C22.7227 35.4058 22.9318 35.3261 23.1411 35.3261C23.3502 35.3261 23.5595 35.4058 23.7186 35.5651C24.0372 35.8838 24.0372 36.4023 23.7186 36.7209ZM25.5963 38.5995C25.442 38.7539 25.2369 38.8389 25.0188 38.8389C24.8006 38.8389 24.5955 38.7538 24.4412 38.5995C24.1227 38.2809 24.1227 37.7624 24.4412 37.4437C24.6004 37.2844 24.8095 37.2047 25.0188 37.2047C25.2279 37.2047 25.4372 37.2844 25.5963 37.4437C25.9149 37.7624 25.9149 38.2809 25.5963 38.5995ZM34.2726 34.6763C34.1413 34.8078 33.9667 34.8802 33.781 34.8802C33.5954 34.8802 33.4208 34.8078 33.2892 34.676L28.3335 29.719C28.1338 29.5194 27.8105 29.5195 27.611 29.7191C27.4116 29.9187 27.4117 30.2423 27.6112 30.4419L32.9492 35.782C33.0806 35.9133 33.1529 36.0881 33.1529 36.274C33.1529 36.4602 33.0805 36.6351 32.9494 36.7663C32.6779 37.0378 32.2363 37.0378 31.9652 36.7665L31.0646 35.8655C31.0596 35.8603 31.0547 35.8551 31.0495 35.85C31.048 35.8485 31.0464 35.8471 31.0448 35.8456L26.9051 31.704C26.7055 31.5044 26.3822 31.5044 26.1827 31.704C25.9831 31.9035 25.9831 32.2272 26.1827 32.4267L30.3356 36.5816C30.4626 36.7118 30.5325 36.8841 30.5325 37.0668C30.5325 37.2527 30.4601 37.4274 30.3288 37.5588C30.0578 37.8301 29.6166 37.8301 29.3453 37.5588L24.8422 33.0535C24.6426 32.8538 24.3193 32.8538 24.1197 33.0535C23.9202 33.253 23.9202 33.5767 24.1197 33.7762L27.4577 37.1159C27.4587 37.1168 27.4594 37.1179 27.4604 37.1188C27.5917 37.2498 27.6639 37.4243 27.6639 37.6099C27.6639 37.7958 27.5915 37.9705 27.4597 38.1024C27.3286 38.2339 27.154 38.3064 26.968 38.3064C26.9231 38.3064 26.8792 38.3018 26.8362 38.2936C26.9189 37.7366 26.7465 37.1486 26.3189 36.7207C25.9716 36.3733 25.5099 36.182 25.0188 36.182C25.0051 36.182 24.9915 36.1826 24.9778 36.1829C24.9883 35.6986 24.8098 35.211 24.4412 34.8421C24.0938 34.4948 23.6322 34.3034 23.141 34.3034C23.1103 34.3034 23.0798 34.3041 23.0493 34.3056C23.0738 33.8048 22.8954 33.2958 22.5139 32.914C22.0495 32.4495 21.3967 32.2863 20.7995 32.4236L20.4332 32.0571C19.4249 31.0479 18.7541 29.7737 18.4931 28.3721C18.3974 27.8588 18.1494 27.3898 17.7757 27.0159L16.8752 26.115L21.9983 20.9894L23.2751 22.2668C23.7659 22.7578 24.434 23.0205 25.1184 23.0205C25.4249 23.0205 25.7348 22.9678 26.0333 22.8592C26.1781 22.8065 26.3279 22.7687 26.4796 22.7447L23.3166 25.9093C22.9296 26.2964 22.7165 26.8111 22.7165 27.3587C22.7165 27.9062 22.9296 28.4209 23.3166 28.8081C23.716 29.2077 24.2405 29.4074 24.7652 29.4074C25.2899 29.4074 25.8145 29.2075 26.214 28.8081L27.8026 27.2187L28.2326 27.6492C28.2327 27.6493 28.2328 27.6494 28.2329 27.6495L28.2508 27.6674L28.268 27.6846C28.268 27.6846 28.2682 27.6847 28.2683 27.6848L28.2686 27.6851C28.2735 27.69 28.2783 27.6946 28.2831 27.6992L34.2728 33.6918C34.4041 33.8232 34.4764 33.9979 34.4764 34.1838C34.4764 34.37 34.4041 34.5447 34.2726 34.6763ZM37.4902 27.0521C37.1357 27.4068 36.903 27.8472 36.8172 28.3259C36.5623 29.7459 35.8884 31.0361 34.8685 32.057L34.476 32.4498L31.2444 29.2166C31.3146 29.2218 31.3851 29.2252 31.4562 29.2252C31.7834 29.2252 32.1182 29.1679 32.4515 29.0314C32.7127 28.9246 32.8377 28.6261 32.7309 28.3649C32.6241 28.1037 32.326 27.9786 32.0647 28.0854C30.75 28.6236 29.1738 27.1404 28.9983 26.9695C28.9954 26.9666 28.9924 26.9638 28.9894 26.9611L28.9713 26.9429C28.9712 26.9429 28.9712 26.9429 28.9711 26.9428L28.9553 26.9271C28.9553 26.927 28.9551 26.9269 28.955 26.9268L28.525 26.4963L29.0126 26.0083C29.2122 25.8087 29.2122 25.4851 29.0127 25.2855C28.8131 25.086 28.4897 25.086 28.2903 25.2855L27.4426 26.1336C27.4422 26.1339 27.4419 26.1343 27.4416 26.1346C27.4412 26.1349 27.4409 26.1353 27.4406 26.1356L25.4916 28.0856C25.091 28.4862 24.4395 28.4861 24.039 28.0856C23.8451 27.8915 23.7382 27.6334 23.7382 27.3589C23.7382 27.0844 23.8451 26.8264 24.0391 26.6323L27.4032 23.2665C27.5904 23.0793 27.7984 22.9146 28.022 22.7767C28.5531 22.4482 29.1666 22.2745 29.7962 22.2745C30.2767 22.2745 30.7606 22.3789 31.1957 22.5765C32.1853 23.0257 33.3615 22.8164 34.1224 22.0553L34.8335 21.344L39.0145 25.5271L37.4902 27.0521ZM40.366 25.434L34.8852 19.9505L37.2644 17.5701L42.7452 23.0536L40.366 25.434Z" fill="#A27FFF" stroke="#A27FFF" stroke-width="0.5"/>
<path d="M40.8804 23.9555C41.1626 23.9555 41.3913 23.7267 41.3913 23.4444C41.3913 23.1622 41.1626 22.9333 40.8804 22.9333C40.5983 22.9333 40.3696 23.1622 40.3696 23.4444C40.3696 23.7267 40.5983 23.9555 40.8804 23.9555Z" fill="#A27FFF" stroke="#A27FFF" stroke-width="0.5"/>
<path d="M15.3404 24.4604C15.6225 24.4604 15.8512 24.2315 15.8512 23.9493C15.8512 23.667 15.6225 23.4382 15.3404 23.4382C15.0583 23.4382 14.8296 23.667 14.8296 23.9493C14.8296 24.2315 15.0583 24.4604 15.3404 24.4604Z" fill="#A27FFF" stroke="#A27FFF" stroke-width="0.5"/>
</g>
<defs>
<clipPath id="clip0_52519_1502">
<rect width="31.9845" height="32" fill="white" transform="translate(11.9941 12)"/>
</clipPath>
</defs>
</svg>
