<svg width="56" height="56" viewBox="0 0 56 56" fill="none" xmlns="http://www.w3.org/2000/svg">
<ellipse opacity="0.3" cx="27.9865" cy="28" rx="27.9865" ry="28" fill="#1EBCB4"/>
<ellipse cx="34.6498" cy="35.9999" rx="6.66344" ry="6.66667" fill="white"/>
<path d="M19.51 27.5932H29.3987C29.7509 27.5932 30.0366 27.3074 30.0366 26.9549C30.0366 26.6025 29.7509 26.3167 29.3987 26.3167H19.51C19.1576 26.3167 18.8721 26.6025 18.8721 26.9549C18.8721 27.3074 19.1576 27.5932 19.51 27.5932V27.5932Z" fill="#1EBCB4" stroke="#1EBCB4" stroke-width="0.5"/>
<path d="M25.4303 30.4656H19.51C19.1576 30.4656 18.8721 30.7514 18.8721 31.1039C18.8721 31.4563 19.1576 31.7421 19.51 31.7421H25.4303C25.7826 31.7421 26.0683 31.4563 26.0683 31.1039C26.0683 30.7514 25.7826 30.4656 25.4303 30.4656Z" fill="#1EBCB4" stroke="#1EBCB4" stroke-width="0.5"/>
<path d="M36.5055 29.0484V18.019C36.5051 16.2566 35.0771 14.8282 33.3157 14.8276H30.7V13.6085C30.7 13.2558 30.4145 12.9702 30.062 12.9702C29.7097 12.9702 29.424 13.2558 29.424 13.6085V14.8276H20.7475V13.6085C20.7475 13.2558 20.462 12.9702 20.1096 12.9702C19.7573 12.9702 19.4716 13.2558 19.4716 13.6085V14.8276H16.8559C15.0945 14.8282 13.6668 16.2566 13.666 18.019V35.3102C13.6668 37.0724 15.0945 38.5008 16.8559 38.5016H28.665C29.8925 41.6472 33.1845 43.473 36.5014 42.8483C39.8182 42.2238 42.2214 39.3254 42.222 35.9485C42.2282 32.5209 39.7592 29.6614 36.5055 29.0484V29.0484ZM16.8625 16.1042H19.4782V17.3233C19.4782 17.6758 19.7637 17.9616 20.1161 17.9616C20.4684 17.9616 20.7541 17.6758 20.7541 17.3233V16.1042H29.4306V17.3233C29.4306 17.6758 29.7161 17.9616 30.0686 17.9616C30.4208 17.9616 30.7065 17.6758 30.7065 17.3233V16.1042H33.3222C34.3779 16.1072 35.233 16.9627 35.2362 18.019V19.5637H14.9485V18.019C14.9493 16.9617 15.8058 16.105 16.8625 16.1042ZM16.8625 37.225C15.8066 37.222 14.9515 36.3663 14.9485 35.3102V20.8339H35.2296V28.9273H35.2104C33.1269 28.9305 31.1521 29.8582 29.8192 31.4607C28.486 33.063 27.9325 35.1745 28.3076 37.225H16.8625ZM35.2104 41.693C32.0395 41.693 29.4687 39.1211 29.4687 35.9485C29.4687 32.7758 32.0395 30.2039 35.2104 30.2039C38.3816 30.2039 40.9522 32.7758 40.9522 35.9485C40.9474 39.1191 38.3796 41.6882 35.2104 41.693Z" fill="#1EBCB4" stroke="#1EBCB4" stroke-width="0.5"/>
<path d="M38.1645 33.6571L34.3751 37.2761L32.4164 35.3102C32.1682 35.0617 31.7654 35.0617 31.517 35.3102C31.2684 35.5587 31.2684 35.9617 31.517 36.2102L33.922 38.6165C34.0416 38.737 34.2051 38.8038 34.3751 38.8016C34.5398 38.803 34.6981 38.7388 34.8151 38.6227L39.0513 34.5696C39.1733 34.4529 39.2439 34.2928 39.2477 34.1238C39.251 33.9549 39.1874 33.7915 39.0704 33.6698C38.822 33.4205 38.4199 33.4147 38.1645 33.6571Z" fill="#1EBCB4" stroke="#1EBCB4" stroke-width="0.5"/>
</svg>
