<svg width="56" height="56" viewBox="0 0 56 56" fill="none" xmlns="http://www.w3.org/2000/svg">
<rect opacity="0.3" width="56" height="56" rx="28" fill="#4EB2F9"/>
<g clip-path="url(#clip0_52519_1662)">
<path d="M25.0835 23.9167H30.9168V26.2501L28.0002 27.4167L25.0835 26.2501V23.9167Z" fill="white"/>
<path d="M25.0833 18.0833L28 17.5L30.3333 18.0833L31.5 21H24.5L25.0833 18.0833Z" fill="white"/>
<path d="M24.5 31.5H31.5V35L28 38.5L24.5 35V31.5Z" fill="white"/>
<path d="M29.7231 22.9433C29.9497 22.9433 30.1333 22.7597 30.1333 22.5331V22.4106C30.1333 22.1841 29.9497 22.0005 29.7231 22.0005C29.4966 22.0005 29.313 22.1841 29.313 22.4106V22.5331C29.313 22.7597 29.4966 22.9433 29.7231 22.9433Z" fill="#4EB2F9" stroke="#4EB2F9" stroke-width="0.3"/>
<path d="M40.3061 26.9982C40.6696 26.4618 40.8823 25.8151 40.8823 25.1196C40.8823 23.2525 39.3501 21.7367 37.4779 21.7652C35.7106 21.7921 34.2506 23.2143 34.1787 24.9803C34.1484 25.7251 34.3624 26.4196 34.7469 26.99C34.292 27.253 33.8225 27.6557 33.4114 28.3733C32.5637 27.9866 31.5651 27.7763 30.7146 27.5972C30.5118 27.5546 30.3161 27.5133 30.1332 27.472V27.1261C31.0395 26.5822 31.7066 25.767 31.7066 25.0003C31.7066 24.9102 31.6988 24.8288 31.6845 24.7549C31.7216 24.6705 31.7558 24.5861 31.7871 24.5018C32.6785 24.4093 33.3188 23.9074 33.3188 23.2634L33.3219 22.3549C33.3219 21.897 32.9565 21.5384 32.4901 21.5384H32.0342L32.0353 20.5629C32.0369 19.4538 31.5955 18.518 30.7589 17.8566C30.0366 17.2856 29.0664 16.9647 28.027 16.9532C28.024 16.9531 28.0209 16.9531 28.0179 16.9532C26.9785 16.9647 26.0083 17.2856 25.286 17.8566C24.4494 18.518 24.008 19.4538 24.0096 20.5623V21.5384H23.5532C23.0868 21.5384 22.7214 21.8971 22.7214 22.3563L22.7245 23.2633C22.7265 23.9074 23.3667 24.4085 24.2561 24.5015C24.2875 24.5861 24.3218 24.6708 24.3591 24.7555C24.3447 24.8294 24.3367 24.9103 24.3367 25.0003C24.3367 25.7669 25.0038 26.5818 25.9102 27.1257V27.4721C25.7272 27.5134 25.5316 27.5546 25.3288 27.5973C24.4667 27.7788 23.4526 27.9924 22.5976 28.3892C22.1837 27.6618 21.7106 27.2559 21.2527 26.9907C21.6375 26.42 21.8518 25.7251 21.8213 24.9798C21.7491 23.2133 20.2881 21.7911 18.5203 21.7652C16.648 21.7376 15.1162 23.2531 15.1162 25.1196C15.1162 25.8153 15.3291 26.4622 15.6931 26.9987C14.6502 27.6417 14 28.7812 14 30.0274V31.8711C14 32.5575 14.5564 33.114 15.2428 33.114H18.9319C19.1565 33.114 19.3524 32.9409 19.3591 32.7165C19.3661 32.4842 19.1798 32.2937 18.9491 32.2937H15.2426C15.0094 32.2937 14.8203 32.1046 14.8203 31.8714V30.0274C14.8203 29.0216 15.3717 28.1062 16.2449 27.6268C16.4089 27.7726 16.5872 27.9023 16.7775 28.0141L18.1583 30.9317C18.2262 31.0751 18.3706 31.1664 18.5291 31.1664H18.5307C18.6895 31.1664 18.8338 31.0742 18.9005 30.9302L20.2862 27.9379C20.4323 27.8434 20.5708 27.7381 20.7001 27.6227C21.0894 27.8195 21.5058 28.1264 21.8855 28.7959C21.3038 29.208 20.8808 29.7639 20.7727 30.5394L20.1826 34.2497C20.1792 34.2709 20.1775 34.2923 20.1775 34.3138V36.1759C20.1775 36.7725 20.662 37.2576 21.2576 37.2576H24.5066C24.9112 37.2576 25.2831 37.1132 25.573 36.8726L27.498 38.7806C27.633 38.9157 27.8123 39.0414 28.0102 39.0468C28.2103 39.0523 28.4134 38.9215 28.5469 38.7806L30.4358 36.9076C30.7191 37.1269 31.074 37.2576 31.4595 37.2576H34.7069C35.303 37.2576 35.7886 36.7725 35.7886 36.1759V34.3138C35.7886 34.3102 35.7866 34.2725 35.7845 34.2574L35.2714 30.5438C35.1624 29.7521 34.7256 29.189 34.1269 28.7739C34.5025 28.1194 34.9141 27.8166 35.2992 27.6221C35.4288 27.7378 35.5675 27.8432 35.7138 27.9379L37.0996 30.9302C37.1663 31.0742 37.3106 31.1664 37.4693 31.1664H37.471C37.6295 31.1664 37.7739 31.0751 37.8417 30.9317L39.2229 28.0135C39.4128 27.9018 39.5908 27.7721 39.7545 27.6265C40.6281 28.1057 41.1797 29.0213 41.1797 30.0274V31.8711C41.1797 32.1041 40.9895 32.2937 40.7559 32.2937H37.0665C36.8419 32.2937 36.6461 32.4667 36.6394 32.6912C36.6324 32.9234 36.8186 33.114 37.0494 33.114H40.7559C41.4419 33.114 42 32.5564 42 31.8711V30.0274C42 28.7808 41.3494 27.6411 40.3061 26.9982V26.9982ZM32.0338 23.1937V22.3587H32.4902C32.4952 22.3587 32.499 22.3595 32.5016 22.3603L32.4985 23.2619C32.4985 23.3791 32.3135 23.5365 32.0059 23.6262C32.0243 23.4811 32.0338 23.3368 32.0338 23.1937V23.1937ZM23.5448 23.2605L23.5418 22.3603C23.5443 22.3595 23.5482 22.3587 23.5532 22.3587H24.0096V23.1937C24.0096 23.3366 24.019 23.4807 24.0373 23.6256C23.7303 23.5355 23.5452 23.3779 23.5448 23.2605V23.2605ZM18.525 29.7889L17.8776 28.421C18.0701 28.4555 18.2679 28.4745 18.4701 28.4745C18.7093 28.4745 18.9425 28.4488 19.1678 28.401L18.525 29.7889ZM20.9934 25.3516C20.8853 26.5615 19.9113 27.536 18.7014 27.6438C17.1227 27.7846 15.8057 26.4669 15.9469 24.8876C16.055 23.6777 17.029 22.7032 18.2389 22.5953C19.8175 22.4546 21.1346 23.7723 20.9934 25.3516ZM24.83 20.5616C24.8272 18.6722 26.482 17.7922 28.0225 17.7734C29.5629 17.7922 31.2178 18.6722 31.215 20.5618L31.2145 20.99C30.4352 20.4686 29.2902 20.1583 28.0298 20.1583C28.0248 20.1583 28.02 20.1583 28.0151 20.1583C26.7545 20.1583 25.6093 20.4684 24.8299 20.9894V20.5616H24.83ZM24.9731 24.0632C24.9651 24.038 24.9577 24.0127 24.95 23.9875C24.8708 23.7169 24.83 23.4514 24.83 23.1937V22.0799C25.3439 21.4159 26.6015 20.9772 28.0221 20.9786C28.0246 20.9785 28.0272 20.9786 28.0298 20.9786C29.4451 20.9786 30.7003 21.417 31.2134 22.0799V23.1937C31.2134 23.4753 31.1649 23.7663 31.0704 24.063C30.9428 24.0059 30.8108 23.959 30.68 23.9099C29.5495 23.4786 28.78 23.3015 28.0242 23.2983C28.023 23.2983 28.0219 23.2983 28.0208 23.2983C27.2639 23.3015 26.494 23.4786 25.3644 23.9095C25.2333 23.9587 25.101 24.0059 24.9731 24.0632V24.0632ZM25.1571 25.0002C25.1571 24.9993 25.1571 24.9985 25.1571 24.9976C25.1573 24.9248 25.1997 24.8588 25.2649 24.8265C25.4103 24.7542 25.6558 24.6764 25.6558 24.6764C26.6864 24.2833 27.3722 24.1217 28.0225 24.1187C28.6718 24.1217 29.3572 24.2833 30.3887 24.6767C30.512 24.7231 30.6388 24.7658 30.7537 24.831C30.8201 24.8687 30.8864 24.917 30.8864 25.0002C30.8864 25.7048 29.4717 26.9279 28.0225 26.9393C26.5725 26.9279 25.1571 25.7048 25.1571 25.0002ZM29.3129 27.5163V27.7961C29.3129 28.1602 29.1911 28.4456 28.951 28.6444C28.7303 28.827 28.4204 28.9276 28.0784 28.9276C27.5366 28.9276 26.7305 28.6263 26.7305 27.7961V27.516C27.15 27.6675 27.59 27.7567 28.0197 27.7596H28.0225C28.0225 27.7596 28.0243 27.7596 28.0253 27.7596C28.4545 27.7567 28.8938 27.6676 29.3129 27.5163V27.5163ZM25.4978 28.3999C25.6618 28.3654 25.8213 28.3318 25.9746 28.2981C26.2255 29.2432 27.176 29.7479 28.0785 29.7479C28.611 29.7479 29.1066 29.5805 29.474 29.2763C29.7807 29.0225 29.9839 28.6901 30.0761 28.2996C30.2272 28.3328 30.3842 28.3659 30.5456 28.3999C30.6623 28.4244 30.7811 28.4495 30.901 28.4752L28.8029 31.2714C28.5181 31.4072 28.2524 31.5839 28.0219 31.7909C27.7911 31.5839 27.5254 31.4072 27.2406 31.2714L25.1425 28.4753C25.2623 28.4495 25.3811 28.4245 25.4978 28.3999V28.3999ZM21.5834 30.6641C21.5838 30.6612 21.5843 30.6585 21.5847 30.6556C21.739 29.5348 22.9645 29.0159 24.2694 28.6785L25.994 30.9768C25.4174 30.9784 24.8473 31.1807 24.3836 31.6607C23.7919 32.2743 23.5266 33.1001 23.5879 33.9034H21.0683L21.5834 30.6641ZM24.9851 36.29C24.8484 36.383 24.6837 36.4371 24.5066 36.4371H21.2576C21.1143 36.4371 20.9978 36.3201 20.9978 36.1757V34.7238H24.5066C24.5673 34.7238 24.6263 34.7303 24.6832 34.7424C25.0458 34.8189 25.3247 35.1263 25.358 35.5041C25.3602 35.5293 25.3613 35.5545 25.3613 35.5802C25.3613 35.8755 25.212 36.1358 24.9851 36.29ZM29.7829 35.5614C29.7802 35.8089 29.8313 36.0451 29.9255 36.2577L28.0224 38.1456L26.0619 36.2025C26.139 36.01 26.1816 35.8 26.1816 35.5802C26.1816 34.6554 25.4302 33.9034 24.5066 33.9034H24.4087C24.3452 33.3074 24.5339 32.6872 24.9736 32.2306C25.673 31.5065 26.7865 31.781 27.4805 32.4077C27.5275 32.4493 27.5647 32.4854 27.5959 32.5144C27.7102 32.6227 27.8277 32.7342 28.0224 32.7342C28.216 32.7342 28.3325 32.6232 28.4457 32.516C28.4769 32.4865 28.5152 32.4504 28.5638 32.4066C29.2573 31.781 30.3707 31.5065 31.0696 32.23C31.5098 32.6866 31.6985 33.3068 31.6351 33.9034H31.4941C30.5696 33.9034 29.793 34.637 29.7829 35.5614V35.5614ZM34.9683 36.1757C34.9683 36.3195 34.8506 36.4371 34.7069 36.4371H31.4595C31.302 36.4371 31.1549 36.3945 31.028 36.3201C30.7754 36.1724 30.6053 35.8984 30.6031 35.5856V35.5802C30.6031 35.1383 30.9384 34.7741 31.3682 34.7287C31.3983 34.7254 31.4289 34.7238 31.4595 34.7238H34.9683V36.1757ZM34.4588 30.6558L34.9075 33.9035H32.4559C32.5166 33.1001 32.2514 32.2744 31.6597 31.6608C31.1961 31.1806 30.626 30.9784 30.0495 30.9768L31.774 28.6786C33.0789 29.0159 34.3044 29.5348 34.4588 30.6558ZM37.475 29.7889L36.8322 28.401C37.0574 28.4488 37.2907 28.4745 37.5299 28.4745C37.7322 28.4745 37.93 28.4554 38.1225 28.4209L37.475 29.7889ZM37.5298 27.6541C36.0688 27.6541 34.8926 26.4106 35.0034 24.926C35.0959 23.6873 36.0948 22.6865 37.3334 22.5925C38.818 22.4799 40.062 23.6571 40.062 25.1196C40.062 26.5172 38.9261 27.6541 37.5298 27.6541Z" fill="#4EB2F9" stroke="#4EB2F9" stroke-width="0.3"/>
<path d="M26.3203 22.9433C26.5468 22.9433 26.7305 22.7597 26.7305 22.5331V22.4106C26.7305 22.1841 26.5468 22.0005 26.3203 22.0005C26.0938 22.0005 25.9102 22.1841 25.9102 22.4106V22.5331C25.9102 22.7597 26.0938 22.9433 26.3203 22.9433Z" fill="#4EB2F9" stroke="#4EB2F9" stroke-width="0.3"/>
</g>
<defs>
<clipPath id="clip0_52519_1662">
<rect width="28" height="28" fill="white" transform="translate(14 14)"/>
</clipPath>
</defs>
</svg>
