<svg width="56" height="56" viewBox="0 0 56 56" fill="none" xmlns="http://www.w3.org/2000/svg">
<rect opacity="0.3" width="56" height="56" rx="28" fill="#4640DD"/>
<path d="M23.3335 18.6667H33.8335L31.5002 22.7501L33.8335 26.8334H23.3335V18.6667Z" fill="white"/>
<path d="M36.9217 34.8627V32.4313C36.9217 31.879 36.474 31.4313 35.9217 31.4313H23.8825V27.3136H33.5904C34.3891 27.3136 34.8655 26.4235 34.4225 25.7589L32.2563 22.5097L34.4224 19.2605C34.8655 18.5959 34.3891 17.7058 33.5904 17.7058H23.8825V17.0195C23.8825 16.6405 23.5753 16.3333 23.1962 16.3333C22.8172 16.3333 22.51 16.6405 22.51 17.0195V17.7058V27.3136V31.4313H20.0786C19.5263 31.4313 19.0786 31.879 19.0786 32.4313V34.8627H17.3335C16.7812 34.8627 16.3335 35.3104 16.3335 35.8627V38.6666C16.3335 39.2189 16.7812 39.6666 17.3335 39.6666H38.6668C39.2191 39.6666 39.6668 39.2189 39.6668 38.6666V35.8627C39.6668 35.3104 39.2191 34.8627 38.6668 34.8627H36.9217ZM32.8944 19.0784L30.6068 22.5097L32.8944 25.9411H23.8825V19.0784H32.8944ZM20.4511 32.8038H35.5492V34.8627H20.4511V32.8038ZM38.2943 38.294H17.706V36.2352H19.0786H36.9217H38.2943V38.294Z" fill="#4640DD"/>
</svg>
