<svg width="56" height="56" viewBox="0 0 56 56" fill="none" xmlns="http://www.w3.org/2000/svg">
<rect opacity="0.3" width="56" height="56" rx="28" fill="#1EBCB4"/>
<rect x="17.5" y="25.6667" width="2.33333" height="7" fill="white"/>
<circle cx="28.0002" cy="37.3334" r="1.16667" fill="white"/>
<rect x="36.167" y="25.6665" width="2.33333" height="7" fill="white"/>
<path d="M38.9832 24.3875H36.7114C36.3615 19.8877 32.5882 16.3333 28.0002 16.3333C23.4122 16.3333 19.6388 19.8877 19.2889 24.3875H17.0171C16.6396 24.3875 16.3335 24.6936 16.3335 25.0711V32.3931C16.3335 32.7707 16.6396 33.0767 17.0171 33.0767H19.9459C20.3235 33.0767 20.6295 32.7707 20.6295 32.3931V25.0711C20.6295 21.0069 23.936 17.7004 28.0002 17.7004C32.0644 17.7004 35.3708 21.0069 35.3708 25.0711V32.3931C35.3708 34.8424 33.3782 36.835 30.929 36.835H30.036C29.7498 35.9848 28.9456 35.3706 28.0002 35.3706C26.8158 35.3706 25.8521 36.3342 25.8521 37.5186C25.8521 38.703 26.8158 39.6666 28.0002 39.6666C28.9456 39.6666 29.7498 39.0524 30.036 38.2022H30.929C33.9008 38.2022 36.3581 35.9589 36.6976 33.0767H38.9832C39.3608 33.0767 39.6668 32.7707 39.6668 32.3931V25.0711C39.6668 24.6936 39.3608 24.3875 38.9832 24.3875V24.3875ZM19.2623 31.7096H17.7007V25.7547H19.2623V31.7096ZM28.0002 38.2994C27.5696 38.2994 27.2193 37.9491 27.2193 37.5186C27.2193 37.0881 27.5696 36.7378 28.0002 36.7378C28.4307 36.7378 28.781 37.0881 28.781 37.5186C28.781 37.9491 28.4307 38.2994 28.0002 38.2994ZM38.2996 31.7096H36.738V25.7547H38.2996V31.7096Z" fill="#1EBCB4"/>
<path d="M33.0213 24.4395C32.766 24.3337 32.4719 24.3921 32.2764 24.5876C32.2763 24.5876 30.1421 26.7212 29.1302 27.7324C28.6757 28.1894 28.415 28.8206 28.415 29.4643C28.415 29.8418 28.7211 30.1479 29.0986 30.1479H32.0761V31.6609C32.0761 32.0385 32.3822 32.3445 32.7597 32.3445C33.1372 32.3445 33.4433 32.0385 33.4433 31.6609V30.1479H33.4919C33.8694 30.1479 34.1755 29.8418 34.1755 29.4643C34.1755 29.0868 33.8694 28.7807 33.4919 28.7807H33.4433V25.0711C33.4433 24.7946 33.2767 24.5454 33.0213 24.4395V24.4395ZM32.0761 28.7807H30.024C30.0473 28.7519 30.072 28.7243 30.0981 28.698C30.6101 28.1864 31.4109 27.386 32.0761 26.721V28.7807Z" fill="#1EBCB4"/>
<path d="M27.2196 31.6609C27.2196 31.2834 26.9135 30.9773 26.536 30.9773H23.8004C23.8236 30.9485 23.8483 30.9208 23.8744 30.8946C24.8849 29.8848 27.0193 27.7511 27.0193 27.7511C27.1475 27.6229 27.2196 27.449 27.2196 27.2677V26.9016C27.2196 25.5153 26.0918 24.3875 24.7055 24.3875C23.3055 24.3875 22.1914 25.5219 22.1914 26.9008V26.9015C22.1914 27.2791 22.4975 27.5848 22.875 27.5848C23.2525 27.5848 23.5586 27.2783 23.5586 26.9008C23.5586 26.2742 24.0631 25.7546 24.7055 25.7546C25.3379 25.7546 25.8524 26.2692 25.8524 26.9016V26.9844C25.2981 27.5385 23.7304 29.1057 22.9065 29.929C22.452 30.386 22.1914 31.0173 22.1914 31.6609C22.1914 32.0384 22.4975 32.3445 22.875 32.3445H26.536C26.9135 32.3445 27.2196 32.0385 27.2196 31.6609V31.6609Z" fill="#1EBCB4"/>
</svg>
