<svg width="56" height="56" viewBox="0 0 56 56" fill="none" xmlns="http://www.w3.org/2000/svg">
<rect opacity="0.3" width="56" height="56" rx="28" fill="#FFB201"/>
<ellipse cx="30.9168" cy="28.5833" rx="7.58333" ry="7.58333" fill="white"/>
<path d="M31.0913 27.4507L31.4449 27.8043L31.7984 27.4507L33.5127 25.7364C33.5128 25.7364 33.5128 25.7364 33.5128 25.7364C33.5845 25.6647 33.7008 25.6647 33.7724 25.7364C33.8441 25.8081 33.8441 25.9243 33.7724 25.9959L33.7724 25.996L31.5747 28.1937C31.5029 28.2654 31.3867 28.2654 31.315 28.1937L29.734 26.6126C29.6622 26.5409 29.6623 26.4247 29.7339 26.353C29.8057 26.2813 29.9219 26.2814 29.9936 26.353L31.0913 27.4507Z" fill="#FFB201" stroke="#FFB201"/>
<path d="M25.57 23.0524L26.2755 22.2274H25.19H21.8185C21.7171 22.2274 21.6349 22.1452 21.6349 22.0438C21.6349 21.9424 21.7171 21.8602 21.8185 21.8602H26.6429C26.6474 21.8605 26.6545 21.8609 26.6628 21.8612L26.6808 21.3615L26.9711 21.7686C32.0346 18.1583 39.1668 21.7681 39.1668 28.0639C39.1668 32.2996 35.7378 35.786 31.4448 35.7861C29.8219 35.7861 28.2687 35.2851 26.9711 34.3594L26.8323 34.2604L26.662 34.2668C26.665 34.2667 26.6242 34.2667 26.54 34.2668C26.4724 34.2669 26.3766 34.267 26.2532 34.2671L25.1602 34.2675C24.2588 34.2677 23.061 34.2678 21.862 34.2679C19.7068 34.2679 17.5482 34.2678 17.1007 34.2678L17.0171 34.2678C16.9157 34.2678 16.8335 34.1856 16.8335 34.0842C16.8335 33.9828 16.9157 33.9006 17.0171 33.9006H25.19H26.2759L25.57 33.0755C24.5272 31.8568 23.8822 30.3303 23.7493 28.7068L23.7117 28.2476H23.251H19.2843C19.183 28.2476 19.1007 28.1654 19.1007 28.064C19.1007 27.9626 19.183 27.8804 19.2843 27.8804H23.251H23.7117L23.7493 27.4212C23.8825 25.7952 24.5293 24.2694 25.57 23.0524ZM24.09 28.0639C24.09 32.163 27.4138 35.4188 31.4448 35.4188C35.5237 35.4188 38.7996 32.1095 38.7996 28.0639C38.7996 21.5929 31.0364 18.3072 26.382 22.7293C24.905 24.1319 24.09 26.0287 24.09 28.0639Z" fill="#FFB201" stroke="#FFB201"/>
<path d="M31.7046 23.6055C31.7046 23.749 31.5883 23.8653 31.4448 23.8653C31.3014 23.8653 31.1851 23.749 31.1851 23.6055C31.1851 23.462 31.3014 23.3457 31.4448 23.3457C31.5883 23.3457 31.7046 23.462 31.7046 23.6055Z" fill="#FFB201" stroke="#FFB201"/>
<path d="M31.4448 33.2822C31.8644 33.2822 32.2045 32.942 32.2045 32.5224C32.2045 32.1028 31.8644 31.7627 31.4448 31.7627C31.0252 31.7627 30.6851 32.1028 30.6851 32.5224C30.6851 32.942 31.0252 33.2822 31.4448 33.2822Z" fill="#FFB201"/>
<path d="M35.8779 27.2788C35.4583 27.2788 35.1182 27.619 35.1182 28.0386C35.1182 28.4582 35.4583 28.7983 35.8779 28.7983C36.2975 28.7983 36.6377 28.4582 36.6377 28.0386C36.6377 27.619 36.2975 27.2788 35.8779 27.2788V27.2788Z" fill="#FFB201"/>
<path d="M27.0794 28.7893C27.4936 28.7222 27.7749 28.332 27.7077 27.9179C27.6406 27.5037 27.2504 27.2224 26.8363 27.2896C26.4222 27.3567 26.1408 27.7469 26.208 28.161C26.2751 28.5752 26.6653 28.8565 27.0794 28.7893Z" fill="#FFB201"/>
</svg>
