<svg width="56" height="56" viewBox="0 0 56 56" fill="none" xmlns="http://www.w3.org/2000/svg">
<circle opacity="0.3" cx="28" cy="28" r="28" fill="#1EBCB4"/>
<path d="M28.0003 14.6666C20.6429 14.6666 14.667 20.6425 14.667 28C14.667 35.3574 20.6429 41.3333 28.0003 41.3333C35.3578 41.3333 41.3337 35.3574 41.3337 28C41.3337 20.6425 35.3578 14.6666 28.0003 14.6666ZM28.0003 40.1767C21.2855 40.1767 15.8236 34.7148 15.8236 28C15.8236 21.2851 21.2855 15.8233 28.0003 15.8233C34.7152 15.8233 40.177 21.2851 40.177 28C40.177 34.7148 34.7152 40.1767 28.0003 40.1767Z" fill="#1EBCB4"/>
<path fill-rule="evenodd" clip-rule="evenodd" d="M14.3335 28C14.3335 20.4585 20.4586 14.3333 28.0002 14.3333C35.5417 14.3333 41.6668 20.4585 41.6668 28C41.6668 35.5415 35.5417 41.6666 28.0002 41.6666C20.4586 41.6666 14.3335 35.5415 14.3335 28ZM28.0002 15C20.8268 15 15.0002 20.8266 15.0002 28C15.0002 35.1733 20.8268 41 28.0002 41C35.1735 41 41.0002 35.1733 41.0002 28C41.0002 20.8266 35.1735 15 28.0002 15ZM28.0002 16.1566C21.4694 16.1566 16.1568 21.4692 16.1568 28C16.1568 34.5307 21.4694 39.8434 28.0002 39.8434C34.5309 39.8434 39.8435 34.5307 39.8435 28C39.8435 21.4692 34.5309 16.1566 28.0002 16.1566ZM15.4901 28C15.4901 21.101 21.1012 15.4899 28.0002 15.4899C34.8991 15.4899 40.5102 21.101 40.5102 28C40.5102 34.8989 34.8991 40.51 28.0002 40.51C21.1012 40.51 15.4901 34.8989 15.4901 28Z" fill="#1EBCB4"/>
<rect x="25.3335" y="21.3333" width="5.33333" height="13.3333" fill="white"/>
<rect x="21.3335" y="30.6666" width="5.33333" height="13.3333" transform="rotate(-90 21.3335 30.6666)" fill="white"/>
<path d="M34.9403 25.1084H30.8921V21.0602C30.8921 20.7389 30.635 20.4819 30.3137 20.4819H25.6872C25.366 20.4819 25.1089 20.7389 25.1089 21.0602V25.1084H21.0607C20.7394 25.1084 20.4824 25.3654 20.4824 25.6867V30.3132C20.4824 30.6345 20.7394 30.8915 21.0607 30.8915H25.1089V34.9397C25.1089 35.261 25.366 35.518 25.6872 35.518H30.3137C30.635 35.518 30.8921 35.261 30.8921 34.9397V30.8915H34.9403C35.2615 30.8915 35.5186 30.6345 35.5186 30.3132V25.6867C35.4864 25.3654 35.2294 25.1084 34.9403 25.1084ZM34.3941 29.7349H34.3619H30.3137C29.9925 29.7349 29.7354 29.9919 29.7354 30.3132V34.3614H26.2656V30.3132C26.2656 29.9919 26.0085 29.7349 25.6872 29.7349H21.639V26.265H25.6872C26.0085 26.265 26.2656 26.008 26.2656 25.6867V21.6385H29.7676V25.6867C29.7676 26.008 30.0246 26.265 30.3459 26.265H34.3941V29.7349Z" fill="#1EBCB4"/>
<path fill-rule="evenodd" clip-rule="evenodd" d="M24.7754 21.0602C24.7754 20.5548 25.1817 20.1486 25.6871 20.1486H30.3136C30.819 20.1486 31.2252 20.5548 31.2252 21.0602V24.7751H34.9401C35.4295 24.7751 35.804 25.1924 35.8501 25.6535L35.8517 25.6701V30.3132C35.8517 30.8186 35.4455 31.2249 34.9401 31.2249H31.2252V34.9397C31.2252 35.4451 30.819 35.8514 30.3136 35.8514H25.6871C25.1817 35.8514 24.7754 35.4451 24.7754 34.9397V31.2249H21.0606C20.5552 31.2249 20.1489 30.8186 20.1489 30.3132V25.6867C20.1489 25.1813 20.5552 24.7751 21.0606 24.7751H24.7754V21.0602ZM25.6871 20.8152C25.5499 20.8152 25.4421 20.923 25.4421 21.0602V25.4417H21.0606C20.9234 25.4417 20.8156 25.5495 20.8156 25.6867V30.3132C20.8156 30.4504 20.9234 30.5582 21.0606 30.5582H25.4421V34.9397C25.4421 35.0769 25.5499 35.1847 25.6871 35.1847H30.3136C30.4508 35.1847 30.5586 35.0769 30.5586 34.9397V30.5582H34.9401C35.0773 30.5582 35.1851 30.4504 35.1851 30.3132V25.7059C35.1614 25.5335 35.0267 25.4417 34.9401 25.4417H30.5586V21.0602C30.5586 20.923 30.4508 20.8152 30.3136 20.8152H25.6871ZM25.9321 21.3052H30.1007V25.6867C30.1007 25.8239 30.2085 25.9317 30.3457 25.9317H34.7272V30.0682H30.3136C30.1764 30.0682 30.0686 30.176 30.0686 30.3132V34.6947H25.9321V30.3132C25.9321 30.176 25.8243 30.0682 25.6871 30.0682H21.3056V25.9317H25.6871C25.8243 25.9317 25.9321 25.8239 25.9321 25.6867V21.3052ZM26.5987 21.9719V25.6867C26.5987 26.1921 26.1925 26.5984 25.6871 26.5984H21.9722V29.4016H25.6871C26.1925 29.4016 26.5987 29.8078 26.5987 30.3132V34.0281H29.4019V30.3132C29.4019 29.8078 29.8082 29.4016 30.3136 29.4016H34.0606V26.5984H30.3457C29.8403 26.5984 29.4341 26.1921 29.4341 25.6867V21.9719H26.5987Z" fill="#1EBCB4"/>
</svg>
