<svg width="56" height="56" viewBox="0 0 56 56" fill="none" xmlns="http://www.w3.org/2000/svg">
<circle opacity="0.3" cx="28" cy="28" r="28" fill="#A27FFF"/>
<path d="M17.3335 24.6667L18.0002 20H38.0002L38.6668 24.6667L42.6668 24V36H38.6668V40H17.3335V36H13.3335V24.6667H17.3335Z" fill="white"/>
<path d="M32.9338 19.038V15.625C32.9338 15.0727 32.486 14.625 31.9338 14.625H24.0662C23.5139 14.625 23.0662 15.0727 23.0662 15.625V19.038H13C12.4477 19.038 12 19.4857 12 20.038V40.375C12 40.9273 12.4477 41.375 13 41.375H43C43.5523 41.375 44 40.9273 44 40.375V20.038C44 19.4857 43.5523 19.038 43 19.038H32.9338ZM24.9412 16.5H31.0588V19.038H24.9412V16.5ZM13.875 20.913H16.6875V23.5H13.875V20.913ZM16.6875 39.5H13.875V36.913H16.6875V39.5ZM42.125 39.5H39.3125V36.913H42.125V39.5ZM42.125 35.038H37.4375V39.5H18.5625V35.038H13.875V25.375H18.5625V20.913H37.4375V25.375H42.125V35.038ZM42.125 23.5H39.3125V20.913H42.125V23.5Z" fill="#A27FFF"/>
<path d="M30.9532 27.2858V24.8466H25.0472V27.2858H22.6079V33.1919H25.0472V35.6311H30.9532V33.1919H33.3925V27.2858H30.9532ZM31.5175 31.3169H29.0782V33.7561H26.9222V31.3169H24.4829V29.1608H26.9222V26.7216H29.0782V29.1608H31.5175V31.3169Z" fill="#A27FFF"/>
</svg>
