<svg width="56" height="56" viewBox="0 0 56 56" fill="none" xmlns="http://www.w3.org/2000/svg">
<circle opacity="0.3" cx="28" cy="28" r="28" fill="#1EBCB4"/>
<g clip-path="url(#clip0_52519_1791)">
<circle cx="28.0002" cy="17.3333" r="2.66667" fill="white"/>
<ellipse cx="15.3335" cy="20.6666" rx="2" ry="2" fill="white"/>
<circle cx="15.3335" cy="36.6666" r="2" fill="white"/>
<ellipse cx="29.3337" cy="39.9999" rx="2.66667" ry="2.66667" fill="white"/>
<circle cx="40.0002" cy="31.9999" r="2.66667" fill="white"/>
<ellipse cx="40.667" cy="20.6666" rx="2" ry="2" fill="white"/>
<ellipse cx="24" cy="29.3333" rx="4" ry="4" fill="white"/>
<path d="M41.463 28.1843V23.2906C42.5267 22.9054 43.2889 21.8853 43.2889 20.6903C43.2889 19.365 42.3512 18.2549 41.1045 17.9875L37.839 12.2697L36.2086 13.2008L39.1251 18.3075C38.6607 18.5811 38.283 18.9863 38.0436 19.4718L30.9147 17.0153C30.5943 15.516 29.2598 14.3881 27.6664 14.3881C26.0795 14.3881 24.7496 15.507 24.4223 16.9972L18.0583 19.0032C17.492 18.3999 16.6883 18.022 15.7975 18.022C14.0871 18.022 12.6955 19.4135 12.6955 21.124C12.6955 22.8345 14.0871 24.2261 15.7975 24.2261C16.1856 24.2261 16.5569 24.1538 16.8996 24.0231L19.6947 27.3603C19.3264 28.0343 19.1168 28.8068 19.1168 29.6274C19.1168 30.225 19.2289 30.7966 19.4315 31.3237L16.9634 33.7283C16.4806 33.4555 15.9237 33.299 15.3307 33.299C13.4941 33.299 12 34.7931 12 36.6296C12 38.1913 13.0805 39.5046 14.533 39.8631L15.2561 43.7303L17.1016 43.3853L16.4264 39.7742C17.7261 39.32 18.6613 38.0823 18.6613 36.6296C18.6613 36.0675 18.5207 35.5377 18.2738 35.0728L20.4662 32.9368C21.3077 33.7998 22.474 34.3436 23.7657 34.3692L26.3638 38.1271C25.9183 38.6925 25.6514 39.405 25.6514 40.179C25.6514 42.0107 27.1416 43.501 28.9733 43.501C30.8051 43.501 32.2953 42.0108 32.2953 40.179C32.2953 40.0754 32.2899 39.973 32.2806 39.8718L39.5416 34.8635C39.8534 34.9556 40.183 35.0059 40.5243 35.0059C42.4408 35.0059 44 33.4467 44 31.5302C44 29.939 42.9248 28.595 41.463 28.1843V28.1843ZM15.3307 38.0829C14.5294 38.0829 13.8775 37.4309 13.8775 36.6297C13.8775 35.8285 14.5294 35.1765 15.3307 35.1765C16.132 35.1765 16.7838 35.8284 16.7838 36.6297C16.7838 37.431 16.1319 38.0829 15.3307 38.0829ZM37.3461 30.1256L28.5328 28.8078C28.2226 27.0349 26.9258 25.5977 25.2302 25.0855L27.1069 20.9839C27.2889 21.0149 27.4757 21.032 27.6664 21.032C29.0621 21.032 30.2587 20.1663 30.7497 18.9442L37.8498 21.3908C38.0809 22.2723 38.7372 22.9833 39.5855 23.2906V28.1843C38.5829 28.466 37.7627 29.1868 37.3461 30.1256V30.1256ZM40.5243 21.5775C40.0352 21.5775 39.6372 21.1795 39.6372 20.6904C39.6372 20.2013 40.0352 19.8033 40.5243 19.8033C41.0135 19.8033 41.4114 20.2013 41.4114 20.6904C41.4114 21.1795 41.0135 21.5775 40.5243 21.5775ZM27.6664 16.2655C28.4629 16.2655 29.111 16.9135 29.111 17.71C29.111 18.5066 28.463 19.1546 27.6664 19.1546C26.8699 19.1546 26.2219 18.5066 26.2219 17.71C26.2219 16.9135 26.87 16.2655 27.6664 16.2655V16.2655ZM24.5729 18.9182C24.7592 19.3935 25.0514 19.816 25.4212 20.1558L23.2389 24.9253C22.3725 25.0394 21.5794 25.3878 20.9249 25.9051L18.3705 22.8552C18.7045 22.3605 18.8997 21.7646 18.8997 21.124C18.8997 20.9854 18.8896 20.8491 18.8719 20.7152L24.5729 18.9182ZM14.5729 21.124C14.5729 20.4488 15.1223 19.8994 15.7975 19.8994C16.4728 19.8994 17.0222 20.4488 17.0222 21.124C17.0222 21.7993 16.4728 22.3486 15.7975 22.3486C15.1223 22.3486 14.5729 21.7993 14.5729 21.124ZM20.9942 29.6274C20.9942 28.0467 22.2802 26.7607 23.861 26.7607C25.4418 26.7607 26.7277 28.0467 26.7277 29.6274C26.7277 31.2082 25.4417 32.4941 23.861 32.4941C22.2803 32.4941 20.9942 31.2081 20.9942 29.6274ZM28.9733 41.6234C28.1769 41.6234 27.5289 40.9755 27.5289 40.1789C27.5289 39.3824 28.1769 38.7344 28.9733 38.7344C29.7698 38.7344 30.4179 39.3824 30.4179 40.1789C30.4179 40.9755 29.7698 41.6234 28.9733 41.6234ZM28.9733 36.857C28.5953 36.857 28.2322 36.9213 27.8934 37.0382L25.7712 33.9686C27.1212 33.3722 28.1419 32.1648 28.4817 30.6985L37.0792 31.984C37.1664 32.6494 37.4417 33.2564 37.8511 33.7488L31.5549 38.0915C30.9454 37.3391 30.0148 36.857 28.9733 36.857ZM40.5243 33.1284C39.643 33.1284 38.9261 32.4114 38.9261 31.5302C38.9261 30.6489 39.6431 29.9319 40.5243 29.9319C41.4056 29.9319 42.1226 30.6489 42.1226 31.5302C42.1225 32.4115 41.4056 33.1284 40.5243 33.1284Z" fill="#1EBCB4"/>
</g>
<defs>
<clipPath id="clip0_52519_1791">
<rect width="32" height="32" fill="white" transform="translate(12 12)"/>
</clipPath>
</defs>
</svg>
