<svg width="56" height="56" viewBox="0 0 56 56" fill="none" xmlns="http://www.w3.org/2000/svg">
<circle opacity="0.3" cx="28" cy="28" r="28" fill="#FFB201"/>
<path d="M13.3335 26.6667L24.0002 26L22.0002 30.6667L24.6668 34.6667L28.0002 36L32.0002 34L33.3335 30V26L42.6668 26.6667V41.3333H13.3335V26.6667Z" fill="white"/>
<path d="M28.4494 27.2123L28.4385 27.5754L28.7804 27.698C29.6782 28.0198 30.3203 28.879 30.3203 29.8828C30.3203 31.1618 29.279 32.2031 28 32.2031C26.721 32.2031 25.6797 31.1618 25.6797 29.8828C25.6797 28.872 26.331 28.0081 27.2386 27.6916L27.5641 27.5781L27.5738 27.2336C27.6944 22.968 28.8309 19.7465 30.8877 17.5788C31.9103 16.5011 33.1682 15.6817 34.6324 15.145C36.0044 14.6422 37.5722 14.3828 39.2969 14.3828C39.5385 14.3828 39.7344 14.5787 39.7344 14.8203C39.7344 15.0619 39.5385 15.2578 39.2969 15.2578C35.9147 15.2578 33.2345 16.2834 31.3781 18.3422C29.5315 20.3902 28.5645 23.3897 28.4494 27.2123ZM29.4453 29.8828C29.4453 29.0854 28.7974 28.4375 28 28.4375C27.2026 28.4375 26.5547 29.0854 26.5547 29.8828C26.5547 30.6802 27.2026 31.3281 28 31.3281C28.7974 31.3281 29.4453 30.6802 29.4453 29.8828Z" fill="#FFB201" stroke="#FFB201"/>
<path d="M42.625 26.5547H42.125H33.9484H33.1569L33.4969 27.2695C33.7588 27.8201 33.9368 28.4087 34.0239 29.0163L34.0854 29.4453H34.5189H42.125H42.625V28.9453V27.0547V26.5547ZM22.5031 27.2695L22.8432 26.5547H22.0516H13.875H13.375V27.0547V28.9453V29.4453H13.875H21.4811H21.9146L21.9761 29.0163C22.0632 28.4086 22.2411 27.8201 22.5031 27.2695ZM13.375 40.2422V40.7422H13.875H42.125H42.625V40.2422V30.8203V30.3203H42.125H34.5189H34.0854L34.024 30.7495C33.6021 33.6961 31.0606 35.9688 28 35.9688C24.9394 35.9688 22.3979 33.6961 21.976 30.7495L21.9146 30.3203H21.4811H13.875H13.375V30.8203V40.2422ZM32.2097 25.6797H43.0625C43.3041 25.6797 43.5 25.8756 43.5 26.1172V41.1797C43.5 41.4213 43.3041 41.6172 43.0625 41.6172H12.9375C12.6959 41.6172 12.5 41.4213 12.5 41.1797V26.1172C12.5 25.8756 12.6959 25.6797 12.9375 25.6797H23.7903C23.9628 25.6797 24.1193 25.7811 24.1897 25.9387C24.2601 26.0962 24.2313 26.2805 24.1163 26.409C23.2604 27.365 22.7891 28.5991 22.7891 29.8828C22.7891 32.7566 25.1262 35.0938 28 35.0938C30.8738 35.0938 33.2109 32.7566 33.2109 29.8828C33.2109 28.5991 32.7396 27.365 31.8837 26.409C31.7687 26.2805 31.7399 26.0962 31.8103 25.9387C31.8807 25.7811 32.0371 25.6797 32.2097 25.6797Z" fill="#FFB201" stroke="#FFB201"/>
<path d="M16.9378 32.7109C16.4474 32.7109 15.9776 33.1421 16.0003 33.6484C16.0231 34.1564 16.4122 34.5859 16.9378 34.5859C17.4282 34.5859 17.898 34.1547 17.8753 33.6484C17.8526 33.1405 17.4634 32.7109 16.9378 32.7109Z" fill="#FFB201"/>
<path d="M20.4691 36.4766C19.9787 36.4766 19.5089 36.9078 19.5316 37.4141C19.5543 37.922 19.9435 38.3516 20.4691 38.3516C20.9594 38.3516 21.4292 37.9204 21.4066 37.4141C21.3838 36.9061 20.9946 36.4766 20.4691 36.4766Z" fill="#FFB201"/>
<path d="M36.6566 32.7109C36.1662 32.7109 35.6964 33.1421 35.7191 33.6484C35.7418 34.1564 36.131 34.5859 36.6566 34.5859C37.1469 34.5859 37.6167 34.1547 37.5941 33.6484C37.5713 33.1405 37.1821 32.7109 36.6566 32.7109Z" fill="#FFB201"/>
<path d="M39.2972 36.4766C38.8068 36.4766 38.337 36.9078 38.3597 37.4141C38.3824 37.922 38.7716 38.3516 39.2972 38.3516C39.7876 38.3516 40.2574 37.9204 40.2347 37.4141C40.2119 36.9061 39.8227 36.4766 39.2972 36.4766Z" fill="#FFB201"/>
</svg>
