<svg width="56" height="56" viewBox="0 0 56 56" fill="none" xmlns="http://www.w3.org/2000/svg">
<circle opacity="0.3" cx="28" cy="28" r="28" fill="#A27FFF"/>
<g clip-path="url(#clip0_52519_1828)">
<path d="M22 29.3334L24 30H27.3333L28 32.6667L24.6667 36L22 34.6667L20 32L22 29.3334Z" fill="white"/>
<path d="M23.3332 22L29.9998 24L33.9998 24.6666L33.3332 12.6666L37.3332 13.3333V29.3333L28.6665 27.3333L22.6665 24L23.3332 22Z" fill="white"/>
<path d="M27.3333 12.6667L32 12L31.3333 16H26L27.3333 12.6667Z" fill="white"/>
<path d="M21.4327 39.2176C20.8716 40.5658 20.5667 42.0068 20.5335 43.4667C20.5335 43.7612 20.7723 44 21.0668 44H37.0668C37.2236 44 37.3725 43.9309 37.4738 43.8112C37.5751 43.6915 37.6186 43.5333 37.5927 43.3787C37.549 43.112 36.4887 36.8507 34.3442 32.5621C33.8537 31.4752 33.6044 30.2949 33.6135 29.1024C34.7418 29.3273 35.8812 29.4928 37.0268 29.5984L37.0668 29.6C37.3115 29.6 37.5247 29.4336 37.5842 29.1963C38.4434 25.7611 38.2876 21.0048 38.1847 17.8576C38.1575 17.0203 38.1314 16.2939 38.1314 15.7456C38.1299 14.6942 37.7199 13.6844 36.9879 12.9296C36.4512 12.3472 35.6987 12.0111 34.9068 12H28.6226C28.0616 11.9984 27.5414 12.2925 27.2535 12.7739C26.5456 13.986 25.5839 15.0307 24.4343 15.8363C24.1518 16.023 23.8508 16.1801 23.5362 16.3051C22.2674 16.7999 21.4599 18.0535 21.534 19.4133C21.5702 20.4214 22.0101 21.3725 22.7548 22.0528C22.6433 22.0926 22.5343 22.139 22.4284 22.192C21.7741 22.5077 21.2976 23.1023 21.1319 23.8096C18.6596 25.4386 17.219 28.2416 17.3335 31.2C17.3335 35.6267 19.4695 37.9845 21.4327 39.2176V39.2176ZM28.1655 13.3259C28.2618 13.1652 28.4353 13.0668 28.6226 13.0667H31.1644C31.0535 14.0997 30.5778 16.2667 28.5335 16.2667C27.664 16.2662 26.7966 16.1839 25.9426 16.0208C26.8127 15.2374 27.5618 14.3292 28.1655 13.3259V13.3259ZM22.6002 19.3771C22.5394 18.4675 23.0779 17.6244 23.9287 17.2971C24.2317 17.1734 24.5241 17.025 24.8028 16.8533C26.0217 17.172 27.2763 17.3333 28.5362 17.3333C31.198 17.3333 32.0919 14.7856 32.2428 13.0667H33.198C32.3458 16.584 32.1731 20.2318 32.6892 23.8139C31.8638 23.6546 31.0284 23.5518 30.189 23.5061C29.5084 23.486 28.8319 23.3925 28.1714 23.2272C27.7234 23.0779 27.2647 22.8896 26.8252 22.7077C26.132 22.3952 25.4112 22.1477 24.6722 21.9685C23.5039 21.6285 22.6748 20.5916 22.6002 19.3771V19.3771ZM22.9052 23.144C23.3654 22.9316 23.8833 22.8792 24.3767 22.9952C24.4204 23.0097 24.4657 23.0189 24.5116 23.0224C25.164 23.1923 25.801 23.417 26.4156 23.6939C26.8743 23.8827 27.3484 24.0784 27.8316 24.2395C28.5749 24.4361 29.3383 24.5469 30.1068 24.5696C31.6263 24.6832 33.3495 24.8117 34.6135 25.76C34.7659 25.8743 34.9678 25.8987 35.143 25.8238C35.3182 25.749 35.4402 25.5863 35.463 25.3971C35.4858 25.208 35.4059 25.021 35.2535 24.9067C34.817 24.5866 34.3367 24.331 33.8274 24.1477C33.212 20.4619 33.3697 16.6884 34.2903 13.0667H34.9068C35.4112 13.0827 35.8875 13.3022 36.2274 13.6752C36.757 14.2307 37.0568 14.9659 37.0668 15.7333C37.0668 16.3029 37.0908 17.0416 37.1202 17.8923C37.2167 20.8427 37.3602 25.2336 36.6556 28.4891C35.0402 28.3083 29.4194 27.52 24.5815 24.8976C23.9258 24.3189 23.1219 23.9342 22.2599 23.7867C22.3961 23.5062 22.6237 23.2805 22.9052 23.1467V23.144ZM21.5922 24.8H21.6002C22.447 24.8231 23.2583 25.1457 23.8898 25.7104C23.9259 25.7463 23.9668 25.777 24.0114 25.8016C26.6973 27.2135 29.565 28.2487 32.5335 28.8779C32.4989 30.3113 32.7907 31.7338 33.3868 33.0379C35.0791 36.4171 36.101 41.2347 36.4268 42.9333H21.6274C21.7094 41.8345 21.9613 40.755 22.374 39.7333C24.0263 40.5017 25.8287 40.8933 27.6508 40.88C28.1444 40.88 28.6376 40.8526 29.1282 40.7979C29.3176 40.7767 29.4813 40.6561 29.5577 40.4815C29.6341 40.3069 29.6115 40.1049 29.4985 39.9514C29.3855 39.798 29.1992 39.7165 29.0098 39.7376C26.7315 40.0189 24.4214 39.6025 22.3847 38.5435C20.566 37.5301 18.4002 35.4352 18.4002 31.2C18.4002 28.4229 19.4823 26.2768 21.5922 24.8V24.8Z" fill="#A27FFF" stroke="#A27FFF" stroke-width="0.5"/>
<path d="M22.9555 35.5925C23.2585 35.8453 23.5806 36.1146 23.9193 36.4048C24.1188 36.5755 24.413 36.5755 24.6126 36.4048C24.9513 36.1146 25.2734 35.8453 25.5763 35.5925C27.3598 34.1066 28.5331 33.1253 28.5331 31.6042C28.558 30.9477 28.3176 30.3087 27.8662 29.8313C27.4147 29.354 26.7901 29.0784 26.1331 29.0667C25.4269 29.0657 24.7516 29.3561 24.2665 29.8693C23.7814 29.3561 23.106 29.0657 22.3998 29.0667C21.7429 29.0784 21.1183 29.354 20.6668 29.8313C20.2153 30.3087 19.9749 30.9477 19.9998 31.6042C19.9998 33.1253 21.1731 34.1066 22.9555 35.5925ZM22.3998 30.1333C22.9829 30.1537 23.5118 30.4806 23.7907 30.993C23.8815 31.1707 24.0638 31.2828 24.2633 31.2837H24.2665C24.4665 31.2829 24.6495 31.1708 24.7411 30.993C25.0202 30.4802 25.5496 30.1532 26.1331 30.1333C26.5076 30.1442 26.8615 30.3072 27.1131 30.5848C27.3647 30.8624 27.4923 31.2305 27.4665 31.6042C27.4665 32.6261 26.4985 33.4346 24.8942 34.7738C24.6931 34.9418 24.4835 35.1162 24.2665 35.2997C24.0494 35.1162 23.8398 34.9418 23.6387 34.7738C22.0345 33.4346 21.0665 32.6261 21.0665 31.6042C21.0406 31.2305 21.1682 30.8624 21.4198 30.5848C21.6714 30.3072 22.0253 30.1442 22.3998 30.1333Z" fill="#A27FFF" stroke="#A27FFF" stroke-width="0.5"/>
</g>
<defs>
<clipPath id="clip0_52519_1828">
<rect width="32" height="32" fill="white" transform="translate(12 12)"/>
</clipPath>
</defs>
</svg>
