<svg width="56" height="56" viewBox="0 0 56 56" fill="none" xmlns="http://www.w3.org/2000/svg">
<circle opacity="0.3" cx="28" cy="28" r="28" fill="#1EBCB4"/>
<g clip-path="url(#clip0_52519_1845)">
<path d="M21.3332 25.3333L23.9998 24.6666L25.3332 28.6666L27.9998 29.3333L30.6665 28.6666L31.9998 24.6666L34.6665 25.3333L35.3332 29.3333L33.3332 36L31.9998 38L29.9998 39.3333L29.3332 34.6666L27.3332 33.3333L25.9998 39.3333L22.6665 37.3333L21.9998 32.6666L20.6665 29.3333L21.3332 25.3333Z" fill="white"/>
<path d="M24 13.3334H32L30.6667 20L24.6667 19.3334L24 13.3334Z" fill="white"/>
<path d="M34.2868 33.1251L34.671 32.3928C34.7991 32.1487 34.9451 31.9002 35.1113 31.6461M34.2868 33.1251L35.5297 31.9198M34.2868 33.1251H35.1138M34.2868 33.1251H35.1138M35.1113 31.6461L35.5297 31.9198M35.1113 31.6461C35.1112 31.6462 35.1112 31.6462 35.1112 31.6462L35.5297 31.9198M35.1113 31.6461C35.9167 30.4144 36.1449 28.9322 35.7454 27.4609L35.7423 27.4493M35.5297 31.9198C36.4157 30.5649 36.6637 28.9348 36.2279 27.3299V27.3299M35.7423 27.4493C35.7433 27.4532 35.7444 27.457 35.7454 27.4609L36.2277 27.3299L36.2279 27.3299M35.7423 27.4493L35.7279 27.3966V27.3299V27.3299H36.2279M35.7423 27.4493C35.2914 25.8056 33.9892 24.4742 32.3435 23.98L32.3435 23.98C32.2529 23.9528 32.1661 23.9365 32.0846 23.9244C32.0505 23.9194 32.0196 23.9154 31.9873 23.9112C31.9799 23.9103 31.9723 23.9093 31.9647 23.9083L32.4873 23.5011M36.2279 27.3299C35.7344 25.5129 34.3011 24.0458 32.4873 23.5011M32.4873 23.5011C32.3152 23.4494 32.1618 23.4296 32.0499 23.4152C32.0032 23.4091 31.9637 23.404 31.9332 23.3979C31.6579 23.3431 31.3724 23.4145 31.1553 23.5926C30.9383 23.7706 30.8125 24.0366 30.8125 24.3174V26.0627C30.8125 27.6135 29.5508 28.8752 28 28.8752C26.4492 28.8752 25.1875 27.6135 25.1875 26.0627V24.3174C25.1875 24.0366 25.0617 23.7707 24.8447 23.5926C24.6277 23.4146 24.3422 23.3431 24.067 23.3979C24.0365 23.404 23.997 23.4091 23.9501 23.4152C23.8378 23.4298 23.6835 23.4498 23.5123 23.5013L23.6561 23.9801M32.4873 23.5011L23.6561 23.9801M23.6561 23.9801C23.746 23.9531 23.833 23.9368 23.9151 23.9246M23.6561 23.9801L23.9151 23.9246M35.1138 33.1251H39.2499C39.4914 33.1251 39.6874 33.3209 39.6874 33.5627V43.0626C39.6874 43.3043 39.4915 43.5001 39.2499 43.5001H16.75C16.5084 43.5001 16.3125 43.3043 16.3125 43.0626V33.5627C16.3125 33.3211 16.5084 33.1252 16.75 33.1252H20.8861H21.7131L21.3289 32.3929C21.2008 32.1489 21.0548 31.9004 20.8886 31.6463L20.5251 31.884M35.1138 33.1251L20.5251 31.884M20.5251 31.884L20.8886 31.6463C20.0832 30.4145 19.855 28.9324 20.2544 27.461M20.5251 31.884L20.2544 27.461M38.8124 42.625H38.3124H17.6875H17.1875V42.125V34.5001V34.0001H17.6875H21.4652H21.9357L21.9643 34.4697C21.9758 34.6586 21.974 34.8472 21.9563 35.035C21.8459 36.2136 22.2375 37.3881 23.0282 38.2562L23.0282 38.2563C23.8202 39.126 24.9495 39.625 26.1249 39.625C26.3665 39.625 26.5624 39.4291 26.5624 39.1875V35.4376C26.5624 34.6445 27.2069 34.0001 27.9999 34.0001C28.793 34.0001 29.4374 34.6445 29.4374 35.4376V39.1875C29.4374 39.4291 29.6333 39.625 29.8749 39.625C31.0504 39.625 32.1797 39.126 32.9717 38.2563L32.9717 38.2563C33.7623 37.3881 34.1539 36.2137 34.0435 35.035L38.8124 42.625ZM38.8124 42.625V42.125M38.8124 42.625V42.125M38.8124 42.125V34.5001V34.0001H38.3124H34.5346H34.0639M38.8124 42.125L34.0639 34.0001M34.0639 34.0001L34.0356 34.4699M34.0639 34.0001L34.0356 34.4699M34.0356 34.4699C34.0242 34.6585 34.0259 34.8471 34.0435 35.0349L34.0356 34.4699ZM23.9151 23.9246C23.9495 23.9195 23.9806 23.9155 24.0131 23.9112M23.9151 23.9246L24.0131 23.9112M24.0131 23.9112C24.0205 23.9103 24.028 23.9093 24.0356 23.9083M24.0131 23.9112L24.0356 23.9083M24.0356 23.9083C24.0712 23.9037 24.1198 23.8972 24.1646 23.8883L24.0356 23.9083ZM20.2544 27.461C20.7022 25.8122 22.0064 24.4758 23.6561 23.9801L20.2544 27.461ZM31.4725 23.9791C31.5737 23.8961 31.707 23.8627 31.8354 23.8883L24.1647 23.8883C24.2931 23.8627 24.4263 23.8961 24.5275 23.9792C24.6288 24.0623 24.6875 24.1864 24.6875 24.3174V26.0627C24.6875 27.8896 26.173 29.3752 28 29.3752C29.8269 29.3752 31.3125 27.8896 31.3125 26.0627V24.3174C31.3125 24.1863 31.3712 24.0622 31.4725 23.9791ZM23.8125 25.6159V24.7533L23.064 25.182C22.1213 25.7218 21.3858 26.6338 21.0989 27.6901L21.5783 27.8203L21.0989 27.6902C20.7698 28.9024 20.9504 30.1418 21.6209 31.1673L21.6209 31.1673C22.5719 32.6215 22.9409 33.9062 22.8275 35.1166C22.7391 36.0605 23.0399 36.9697 23.6751 37.6671C24.0465 38.075 24.5108 38.3794 25.0205 38.5599L25.6874 38.7961V38.0886V35.4376C25.6874 34.1629 26.7253 33.1251 27.9999 33.1251C29.2746 33.1251 30.3124 34.1629 30.3124 35.4376V38.0886V38.7961L30.9793 38.5599C31.4891 38.3794 31.9534 38.0749 32.3248 37.6672L31.9646 37.3391L32.3248 37.6672C32.9599 36.9697 33.2608 36.0605 33.1723 35.1166L32.6745 35.1633L33.1723 35.1166C33.0589 33.9062 33.428 32.6215 34.3789 31.1673L33.9605 30.8937L34.3789 31.1673C35.0495 30.1418 35.2302 28.9025 34.901 27.6901L34.901 27.6901C34.6141 26.6338 33.8784 25.7219 32.9359 25.182L32.1874 24.7533V25.6159V26.0626C32.1874 28.3711 30.3085 30.2501 27.9999 30.2501C25.6914 30.2501 23.8125 28.3711 23.8125 26.0626V25.6159Z" fill="#1EBCB4" stroke="#1EBCB4" stroke-width="0.999994"/>
<path d="M31.8355 12.6064L31.8355 12.6064C32.0401 12.6471 32.1876 12.8268 32.1876 13.0355V16.6877C32.1876 18.9962 30.3086 20.8752 28.0001 20.8752C25.6915 20.8752 23.8126 18.9962 23.8125 16.6877C23.8125 16.6877 23.8125 16.6876 23.8125 16.6876V13.0355C23.8125 12.8268 23.9599 12.6472 24.1646 12.6064L24.1646 12.6064C25.4394 12.3526 26.6878 12.5572 27.7491 13.1732L28 13.3188L28.251 13.1732C29.3124 12.5572 30.5608 12.3527 31.8355 12.6064ZM25.183 13.3763L25.1853 13.8763H24.6876V16.6877C24.6876 18.5146 26.1732 20.0002 28.0001 20.0002C29.8271 20.0002 31.3126 18.5146 31.3126 16.6877V13.8763V13.3805L30.8168 13.3764C29.8912 13.3687 29.0042 13.6541 28.2639 14.2136L28.2639 14.2136C28.1078 14.3315 27.8924 14.3315 27.7363 14.2135C27.1318 13.7567 26.4291 13.482 25.6876 13.4013V13.3763H25.26C25.2344 13.3761 25.2087 13.3761 25.183 13.3763Z" fill="#1EBCB4" stroke="#1EBCB4" stroke-width="0.999994"/>
<path d="M18.3157 22.6219L18.3156 22.6218L16.4406 20.7469C16.4406 20.7469 16.4406 20.7469 16.4406 20.7469C16.2698 20.5761 16.2698 20.2991 16.4406 20.1282C16.6115 19.9574 16.8885 19.9574 17.0593 20.1282L17.0594 20.1282L17.334 20.4029L18.1875 21.2564V20.0493V18.5626C18.1875 18.321 18.3834 18.1251 18.625 18.1251C18.8666 18.1251 19.0625 18.321 19.0625 18.5626V20.0493V21.2564L19.9161 20.4029L20.1907 20.1282C20.3616 19.9574 20.6386 19.9574 20.8094 20.1282L20.8094 20.1282C20.9803 20.2991 20.9803 20.5761 20.8094 20.7469L18.9345 22.6218L18.9345 22.6219C18.8514 22.7049 18.7341 22.7501 18.6251 22.7501C18.5159 22.7501 18.3971 22.7033 18.3157 22.6219Z" fill="#1EBCB4" stroke="#1EBCB4" stroke-width="0.999994"/>
<path d="M37.0657 22.6219L37.0656 22.6218L35.1906 20.7469C35.1906 20.7469 35.1906 20.7469 35.1906 20.7469C35.0198 20.5761 35.0198 20.2991 35.1906 20.1282C35.3615 19.9574 35.6386 19.9574 35.8093 20.1282L35.8094 20.1282L36.084 20.4029L36.9375 21.2564V20.0493V18.5626C36.9375 18.321 37.1334 18.1251 37.375 18.1251C37.6167 18.1251 37.8125 18.321 37.8125 18.5626V20.0493V21.2564L38.6661 20.4029L38.9407 20.1282L38.8125 20.0001L38.9407 20.1282C39.1116 19.9574 39.3886 19.9574 39.5594 20.1282L39.5594 20.1282C39.7303 20.2991 39.7303 20.5761 39.5594 20.7469L37.6846 22.6218L37.6845 22.6219C37.6017 22.7047 37.4836 22.7501 37.3751 22.7501C37.2649 22.7501 37.1489 22.7051 37.0657 22.6219Z" fill="#1EBCB4" stroke="#1EBCB4" stroke-width="0.999994"/>
</g>
<defs>
<clipPath id="clip0_52519_1845">
<rect width="32" height="32" fill="white" transform="translate(12 12)"/>
</clipPath>
</defs>
</svg>
