<svg width="56" height="56" viewBox="0 0 56 56" fill="none" xmlns="http://www.w3.org/2000/svg">
<circle opacity="0.3" cx="28" cy="28" r="28" fill="#FFB201"/>
<path d="M22.6665 21.3333L27.9998 20.6666L33.3332 22.6666L35.3332 28L34.6665 38.6666L28.6665 39.3333L22.6665 34.6666L20.6665 28L22.6665 21.3333Z" fill="white"/>
<path d="M28.9375 12V19.5524C28.6296 19.5182 28.3169 19.5 28 19.5C27.6674 19.5 27.3394 19.52 27.0168 19.5576C26.5753 15.3171 22.9804 12 18.625 12H17.6875V17.625H18.625C20.1758 17.625 21.4375 18.8867 21.4375 20.4375V22.6407C20.2656 24.0899 19.5625 25.933 19.5625 27.9376C19.5625 32.2655 21.8071 36.0764 25.1875 38.2561V44H30.8125V40.1516C31.1219 40.1754 31.4346 40.1875 31.75 40.1875C34.3347 40.1875 36.4375 38.0847 36.4375 35.5V27.9375C36.4375 25.933 35.7344 24.0899 34.5625 22.6407V22.3125C34.5625 20.7617 35.8242 19.5 37.375 19.5H38.3125V13.875H37.375C36.4124 13.875 35.4711 14.0434 34.5625 14.377V12H28.9375ZM19.5625 15.8442V13.9418C22.5932 14.3772 24.9617 16.8912 25.1721 19.988C24.5105 20.2241 23.8866 20.5403 23.3125 20.9253V20.4375C23.3125 18.1738 21.6994 16.2797 19.5625 15.8442V15.8442ZM28.9375 42.125H27.0625V39.2447C27.6647 39.4979 28.2912 39.7036 28.9375 39.8577V42.125ZM34.5625 35.5C34.5625 37.0508 33.3008 38.3125 31.75 38.3125C30.7754 38.3125 29.8319 38.1757 28.9375 37.9202V36.4375C28.9375 34.6804 30.1311 33.1778 31.8401 32.7834L32.8177 32.5579L32.5265 31.5978C32.0438 30.0066 30.6015 28.9375 28.9375 28.9375V30.8125C29.4423 30.8125 29.9163 31.0201 30.2614 31.3626C29.6126 31.6739 29.0244 32.1092 28.5352 32.6436C27.6941 32.4589 27.0625 31.7082 27.0625 30.8125H25.1875C25.1875 32.3701 26.1422 33.7085 27.497 34.2744C27.2134 34.9559 27.0625 35.6919 27.0625 36.4375V37.1774C23.7261 35.4573 21.4375 31.9612 21.4375 27.9375C21.4375 24.6378 23.8856 21.8996 27.0608 21.4425C27.0251 22.4452 26.1988 23.25 25.1875 23.25V25.125C26.0652 25.125 26.8727 24.8211 27.5124 24.3141C28.2646 25.9002 29.881 27 31.75 27H32.6875V25.125H31.75C30.1992 25.125 28.9375 23.8633 28.9375 22.3125V21.4423C32.1136 21.8986 34.5625 24.6372 34.5625 27.9375V35.5ZM36.4375 15.8209V17.7192C34.7149 18.0703 33.3334 19.3694 32.8622 21.0456C32.2363 20.6027 31.5476 20.2433 30.8125 19.9826V13.875H32.6875V17.4831L34.0966 16.6629C34.8482 16.2254 35.6324 15.9437 36.4375 15.8209Z" fill="#FFB201"/>
</svg>
