<svg width="56" height="56" viewBox="0 0 56 56" fill="none" xmlns="http://www.w3.org/2000/svg">
<circle opacity="0.3" cx="28" cy="28" r="28" fill="#FFB201"/>
<g clip-path="url(#clip0_52519_1880)">
<circle cx="28" cy="21.3334" r="8" fill="white"/>
<path d="M32.1869 28.4541C33.9878 28.3652 35.0959 27.2043 35.0959 25.3796C35.0959 25.2432 35.088 25.1065 35.0722 24.971C36.28 24.1995 36.7994 23.1666 36.7994 21.5656C36.7994 19.965 36.2799 18.9321 35.0722 18.1603C35.088 18.0247 35.0959 17.888 35.0959 17.7516C35.0959 15.927 33.9878 14.7661 32.1869 14.6771C31.7046 13.7771 30.7611 13.2186 29.6699 13.2035C29.0337 13.1951 28.5127 13.3865 28.1201 13.7738C28.0784 13.815 28.0384 13.8583 28.0001 13.9036C27.9617 13.8583 27.9218 13.815 27.88 13.7738C27.4873 13.3865 26.9654 13.195 26.3302 13.2035C25.2391 13.2187 24.2958 13.777 23.8132 14.6771C22.0123 14.7661 20.9042 15.927 20.9042 17.7516C20.9042 17.888 20.9122 18.0248 20.9279 18.1603C19.7201 18.9318 19.2007 19.9647 19.2007 21.5657C19.2007 23.1662 19.7202 24.1992 20.9279 24.971C20.9121 25.1065 20.9042 25.2432 20.9042 25.3796C20.9042 27.2043 22.0123 28.3652 23.8132 28.4541C24.2956 29.3541 25.239 29.9126 26.3302 29.9277C26.3442 29.9279 26.3582 29.928 26.3721 29.928C26.9888 29.928 27.496 29.7362 27.88 29.3575C27.9217 29.3163 27.9617 29.273 28.0001 29.2277C28.0384 29.273 28.0783 29.3163 28.1201 29.3575C28.5041 29.7362 29.0112 29.928 29.6279 29.928C29.6419 29.928 29.6559 29.9279 29.6699 29.9277C30.7611 29.9125 31.7043 29.3542 32.1869 28.4541ZM27.3751 27.0428C27.3751 27.7343 27.2462 28.227 27.0024 28.4675C26.8547 28.6131 26.6399 28.6821 26.3476 28.6778C25.6979 28.6688 25.1453 28.338 24.8876 27.8097C24.9752 27.6458 25.1066 27.5093 25.271 27.4142C25.502 27.2807 25.771 27.2452 26.0283 27.3143C26.3615 27.4039 26.7045 27.2062 26.794 26.8728C26.8836 26.5394 26.6859 26.1966 26.3525 26.107C25.7721 25.9512 25.1658 26.0311 24.6453 26.3321C24.2823 26.542 23.9912 26.8418 23.7951 27.2012C22.706 27.124 22.1542 26.5122 22.1542 25.3796C22.1542 25.2356 22.168 25.0913 22.1951 24.9502C22.2661 24.5808 22.0955 24.2072 21.7712 24.0207C20.7963 23.4595 20.4508 22.817 20.4508 21.5657C20.4508 20.3142 20.7963 19.6717 21.7708 19.1108C22.0955 18.9242 22.266 18.5506 22.1951 18.1806C22.1679 18.0398 22.1542 17.8955 22.1542 17.7516C22.1542 16.5373 22.7884 15.9216 24.0392 15.9216H24.0467C24.065 15.9216 24.0832 15.921 24.1012 15.92C24.4213 16.0546 24.6016 16.4114 24.5092 16.7587C24.4206 17.0923 24.6191 17.4346 24.9526 17.5233C25.0064 17.5376 25.0604 17.5445 25.1136 17.5445C25.39 17.5445 25.6428 17.3597 25.7172 17.0799C25.9219 16.3105 25.6382 15.5233 25.0582 15.0511C25.3517 14.6825 25.8173 14.4608 26.3477 14.4534C26.6404 14.4492 26.8547 14.5181 27.0024 14.6638C27.2462 14.9042 27.3751 15.3969 27.3751 16.0885V27.0428ZM31.491 26.3726C31.5797 26.039 31.3812 25.6967 31.0476 25.608C30.7141 25.5192 30.3717 25.7178 30.283 26.0513C30.0784 26.8208 30.362 27.6079 30.942 28.0801C30.6486 28.4487 30.1829 28.6705 29.6526 28.6778C29.3597 28.6828 29.1455 28.6131 28.9978 28.4675C28.754 28.227 28.6251 27.7343 28.6251 27.0428V16.0885C28.6251 15.397 28.7541 14.9043 28.9979 14.6638C29.1456 14.5182 29.3597 14.4492 29.6526 14.4535C30.3023 14.4625 30.8549 14.7933 31.1126 15.3216C31.025 15.4855 30.8936 15.622 30.7292 15.7171C30.4982 15.8506 30.2293 15.8861 29.9719 15.817C29.6387 15.7275 29.2957 15.9251 29.2062 16.2585C29.1167 16.5918 29.3144 16.9347 29.6477 17.0242C29.8416 17.0763 30.0383 17.102 30.2338 17.102C30.6236 17.102 31.0083 16.9996 31.3549 16.7991C31.7179 16.5892 32.009 16.2895 32.2051 15.93C33.2942 16.0073 33.846 16.6191 33.846 17.7516C33.846 17.8956 33.8322 18.04 33.8051 18.181C33.7342 18.5505 33.9047 18.9241 34.2291 19.1105C35.2039 19.6718 35.5494 20.3142 35.5494 21.5656C35.5494 22.8171 35.2039 23.4596 34.2294 24.0205C33.9047 24.2071 33.7342 24.5807 33.8051 24.9507C33.8322 25.0914 33.8459 25.2357 33.8459 25.3796C33.8459 26.5939 33.2117 27.2096 31.9609 27.2096H31.9561C31.9368 27.2095 31.9177 27.2101 31.8987 27.2112C31.5789 27.0766 31.3987 26.7198 31.491 26.3726V26.3726Z" fill="#FFB201" stroke="#FFB201" stroke-width="0.5"/>
<path d="M24.4548 20.2865C23.7155 20.2865 23.0727 20.7083 22.7774 21.3873C22.4837 22.0625 22.6124 22.8157 23.1133 23.3532C23.1374 23.379 23.162 23.4045 23.1872 23.4296C23.3092 23.5514 23.469 23.6123 23.6288 23.6123C23.7889 23.6123 23.949 23.5511 24.0711 23.4289C24.315 23.1846 24.3146 22.7889 24.0704 22.545C24.0558 22.5304 24.0415 22.5156 24.0276 22.5007C23.7927 22.2486 23.8886 21.9664 23.9237 21.8859C23.9593 21.8039 24.103 21.5365 24.4548 21.5365C24.8 21.5365 25.0798 21.2567 25.0798 20.9115C25.0798 20.5663 24.8 20.2865 24.4548 20.2865V20.2865Z" fill="#FFB201" stroke="#FFB201" stroke-width="0.5"/>
<path d="M31.9294 22.5449C31.685 22.7888 31.6848 23.1846 31.9287 23.4288C32.0508 23.5511 32.2109 23.6122 32.371 23.6122C32.5308 23.6122 32.6906 23.5513 32.8126 23.4296C32.8377 23.4044 32.8624 23.3789 32.8865 23.353C33.3874 22.8157 33.516 22.0625 33.2223 21.3873C32.927 20.7083 32.2842 20.2865 31.5449 20.2865C31.1997 20.2865 30.9199 20.5663 30.9199 20.9115C30.9199 21.2567 31.1997 21.5365 31.5449 21.5365C31.8967 21.5365 32.0404 21.8039 32.076 21.8859C32.1111 21.9664 32.207 22.2486 31.9722 22.5006C31.9583 22.5156 31.944 22.5304 31.9294 22.5449V22.5449Z" fill="#FFB201" stroke="#FFB201" stroke-width="0.5"/>
<path d="M22.4166 30.0221L18.0595 25.7288V21.1064C18.0595 20.062 17.2099 19.2124 16.1656 19.2124C16.1557 19.2124 16.1012 19.2135 16.1001 19.2135C15.9933 19.2172 15.8872 19.2301 15.7831 19.2517V18.7896C15.7831 17.7562 14.9911 16.9095 13.9799 16.8619C13.4423 16.8364 12.8948 17.0374 12.5158 17.3989C12.1928 17.7069 12.015 18.1084 12.015 18.5292C12.015 20.0033 12.006 26.8709 12 29.0207C11.9999 29.0714 12.0003 29.1218 12.0013 29.1721C12.0305 30.7039 12.7094 32.191 13.8638 33.252C13.8736 33.2612 13.8838 33.2699 13.8943 33.2784L18.7678 37.2094V42.1717C18.7678 42.5169 19.0476 42.7967 19.3928 42.7967H23.7861C24.1313 42.7967 24.4111 42.5169 24.4111 42.1717V34.7873C24.4111 33.0079 23.6841 31.271 22.4166 30.0221ZM16.1393 20.4629L16.1655 20.4624C16.5206 20.4624 16.8095 20.7513 16.8095 21.1064V25.0161C16.4679 24.96 16.114 24.9925 15.783 25.1155V20.5882C15.8868 20.5112 16.0091 20.4681 16.1393 20.4629V20.4629ZM23.1611 41.5467H20.0178V36.9106C20.0178 36.7216 19.9323 36.5428 19.7852 36.4241L14.6953 32.3185C13.7998 31.4884 13.2736 30.334 13.251 29.1485C13.2503 29.1072 13.2499 29.0657 13.25 29.024C13.256 26.8736 13.265 20.0037 13.265 18.5292C13.265 18.4512 13.3032 18.3752 13.3786 18.3033C13.5111 18.1769 13.7238 18.1016 13.9211 18.1105C14.2585 18.1264 14.5331 18.431 14.5331 18.7895V26.4718C14.512 26.5477 14.4953 26.6252 14.483 26.704C14.3849 27.3332 14.592 27.9794 15.0371 28.4337L19.4393 33.0389C19.6778 33.2884 20.0734 33.2974 20.323 33.0588C20.5725 32.8203 20.5814 32.4246 20.3428 32.1751L15.9378 27.567C15.9357 27.5647 15.9335 27.5625 15.9313 27.5604C15.7575 27.3839 15.6798 27.1419 15.718 26.8966C15.7425 26.7398 15.8133 26.5967 15.924 26.4811C15.944 26.4629 15.985 26.4258 16.0059 26.4069C16.316 26.1632 16.7558 26.1907 17.0345 26.4735C17.0366 26.4757 17.0388 26.4779 17.041 26.48L21.5392 30.9124C22.5699 31.9279 23.161 33.3402 23.161 34.7872V41.5467H23.1611Z" fill="#FFB201" stroke="#FFB201" stroke-width="0.5"/>
<path d="M43.985 18.5292C43.985 18.1083 43.8072 17.7069 43.4842 17.3988C43.1053 17.0373 42.5583 16.8368 42.0202 16.8618C41.009 16.9094 40.2169 17.7562 40.2169 18.7895V19.2515C40.113 19.23 40.0072 19.2172 39.9008 19.2135C39.8995 19.2135 39.8444 19.2123 39.8344 19.2123C38.79 19.2123 37.9404 20.062 37.9404 21.1063V25.7287L33.5834 30.022C32.3159 31.271 31.5889 33.0078 31.5889 34.7873V42.1717C31.5889 42.5168 31.8687 42.7967 32.2139 42.7967H36.6071C36.9523 42.7967 37.2321 42.5168 37.2321 42.1717V37.2094L42.1056 33.2783C42.1161 33.2699 42.1263 33.2612 42.1362 33.252C43.2906 32.191 43.9695 30.7039 43.9987 29.1718C43.9996 29.1218 44 29.0714 43.9999 29.0205C43.994 26.8708 43.985 20.0033 43.985 18.5292V18.5292ZM39.8304 20.4623L39.8609 20.4629C39.991 20.4681 40.1132 20.5112 40.2169 20.5882V25.1152C39.8861 24.9923 39.5322 24.9599 39.1905 25.016V21.1063C39.1905 20.7513 39.4794 20.4624 39.8304 20.4623V20.4623ZM42.749 29.1483C42.7264 30.334 42.2002 31.4884 41.3047 32.3186L36.2147 36.4242C36.0677 36.5428 35.9821 36.7217 35.9821 36.9107V41.5467H32.8389V34.7873C32.8389 33.3404 33.43 31.928 34.4607 30.9125L38.9588 26.4802C38.9611 26.478 38.9632 26.4758 38.9654 26.4736C39.2442 26.1906 39.6846 26.1632 39.9937 26.4067C40.0146 26.4256 40.056 26.4631 40.0761 26.4813C40.1863 26.5962 40.2574 26.7395 40.2818 26.8966C40.3201 27.142 40.2424 27.3839 40.0685 27.5604C40.0667 27.5622 40.065 27.564 40.0633 27.5657L37.8431 29.8748C37.6038 30.1236 37.6116 30.5192 37.8604 30.7585C38.1091 30.9977 38.5048 30.9901 38.7441 30.7412L40.9622 28.4343C41.4077 27.98 41.615 27.3335 41.5169 26.704C41.5046 26.6252 41.4878 26.5477 41.4667 26.4718V18.7895C41.4667 18.431 41.7413 18.1263 42.0787 18.1105C42.2762 18.1016 42.4887 18.1769 42.6212 18.3033C42.6966 18.3752 42.7348 18.4512 42.7348 18.5292C42.7348 20.0038 42.7439 26.8736 42.7498 29.024C42.7501 29.0657 42.7497 29.1073 42.749 29.1483V29.1483Z" fill="#FFB201" stroke="#FFB201" stroke-width="0.5"/>
<path d="M36.908 32.1176C36.8056 31.8679 36.5437 31.7098 36.275 31.7341C36.0171 31.7575 35.7942 31.9442 35.7277 32.1947C35.6615 32.4438 35.7578 32.7139 35.9672 32.8645C36.1787 33.0166 36.4724 33.0189 36.6864 32.8704C36.9252 32.7047 37.0199 32.3863 36.908 32.1176V32.1176Z" fill="#FFB201" stroke="#FFB201" stroke-width="0.5"/>
</g>
<defs>
<clipPath id="clip0_52519_1880">
<rect width="32" height="32" fill="white" transform="translate(12 12)"/>
</clipPath>
</defs>
</svg>
